<?xml version="1.0" encoding="UTF-8" standalone="no"?>
<!-- Created with Inkscape (http://www.inkscape.org/) -->

<svg
   width="210mm"
   height="297mm"
   viewBox="0 0 210 297"
   version="1.1"
   id="svg5"
   sodipodi:docname="titles.svg"
   inkscape:version="1.1 (c68e22c387, 2021-05-23)"
   xmlns:inkscape="http://www.inkscape.org/namespaces/inkscape"
   xmlns:sodipodi="http://sodipodi.sourceforge.net/DTD/sodipodi-0.dtd"
   xmlns="http://www.w3.org/2000/svg"
   xmlns:svg="http://www.w3.org/2000/svg">
  <sodipodi:namedview
     id="namedview7"
     pagecolor="#ffffff"
     bordercolor="#666666"
     borderopacity="1.0"
     inkscape:pageshadow="2"
     inkscape:pageopacity="0.0"
     inkscape:pagecheckerboard="0"
     inkscape:document-units="mm"
     showgrid="false"
     inkscape:zoom="2.8284271"
     inkscape:cx="308.29856"
     inkscape:cy="220.26376"
     inkscape:window-width="1920"
     inkscape:window-height="1001"
     inkscape:window-x="2391"
     inkscape:window-y="-9"
     inkscape:window-maximized="1"
     inkscape:current-layer="text16197" />
  <defs
     id="defs2" />
  <g
     inkscape:label="Vrstva 1"
     inkscape:groupmode="layer"
     id="layer1">
    <g
       aria-label="abcdefghijklmnopqrstuvwxyz"
       id="text16197"
       style="font-size:10.5833px;line-height:1.25;font-family:'Glacial Indifference';-inkscape-font-specification:'Glacial Indifference';stroke-width:0.264583"
       transform="translate(0.10983725,-6.4803994)">
      <path
         style="color:#000000;-inkscape-font-specification:'Glacial Indifference';fill:#ff8100;stroke-width:7.97439;-inkscape-stroke:none"
         d="m 0,0 v 21.199219 c 0,-4.879985 3.7597819,-9.238281 8.7597656,-9.238281 2.2399924,0 4.4810204,0.638599 6.0410154,2.558593 V 0 Z M 0,21.199219 V 39.998047 H 134.24805 V 0 H 20.800781 v 30 h -6 V 27.880859 C 13.600785,29.680854 10.999758,30.400391 8.7597656,30.400391 3.7597819,30.400391 0,26.079203 0,21.199219 Z M 146.6582,0 v 39.998047 h 35.26953 c -4.79149,-0.01034 -10.00966,-2.409394 -10.28906,-7.757813 h 6 c 0.44,2.079994 2.08001,3.320313 4,3.320313 2.63999,0 4.51953,-2.39993 4.51953,-4.919922 v -2.800781 c -1.19999,1.839994 -3.79907,2.560547 -6.03906,2.560547 -4.99998,0 -8.75976,-4.36025 -8.75976,-9.240235 0,-4.879984 3.75978,-9.199219 8.75976,-9.199218 2.23999,0 4.31907,0.5586 6.03906,2.558593 v -2.160156 h 6 v 17.599609 c 0,5.792375 -4.58772,10.02796 -10.17773,10.039063 H 286.625 V 0 h -24.74609 v 30 h -6 v -2.119141 c -1.2,1.799995 -3.80103,2.519532 -6.04102,2.519532 -4.99998,0 -8.75976,-4.321188 -8.75977,-9.201172 10e-6,-4.879985 3.75979,-9.238281 8.75977,-9.238281 2.23999,0 4.48102,0.638599 6.04102,2.558593 V 0 Z m 154.47266,0 v 39.998047 h 98.85352 V 0 Z m 112.25976,0 v 39.998047 h 131.33594 c -4.7915,-0.01034 -10.00966,-2.409394 -10.28906,-7.757813 h 6 c 0.44,2.079994 2.08001,3.320313 4,3.320313 2.63999,0 4.51953,-2.39993 4.51953,-4.919922 v -2.800781 c -1.19999,1.839994 -3.79907,2.560547 -6.03906,2.560547 -4.99999,0 -8.75977,-4.36025 -8.75977,-9.240235 0,-4.879984 3.75978,-9.199219 8.75977,-9.199218 2.23999,0 4.31907,0.5586 6.03906,2.558593 v -2.160156 h 6 v 17.599609 c 0,5.792368 -4.58773,10.027949 -10.17773,10.039063 h 54.54492 V 0 Z M 611.79688,0 V 39.998047 H 810.99609 V 24.720703 c 0,4.159987 -3.5597,5.679688 -8.67968,5.679688 -5.23999,0 -9.19958,-1.960954 -9.51953,-6.960938 h 5.95898 c 0,2.639992 2.35969,2.800781 3.67969,2.800781 1.35999,0 2.51953,-0.520471 2.51953,-1.480468 0,-3.719989 -11.39844,-0.79924 -11.39844,-7.199219 0,-3.599989 2.75963,-5.59961 8.59961,-5.599609 4.63999,0 8.04055,1.719778 8.56055,5.759765 h -5.88086 c -0.2,-1.599995 -1.67985,-2.041015 -2.83985,-2.041015 -1.15999,-1e-6 -2.40039,0.600632 -2.40039,1.640624 0,2.479993 11.40039,-0.03959 11.40039,7.400391 V 0 H 643.4375 v 14.519531 c 1.56,-1.919994 3.75907,-2.558593 6.03906,-2.558593 4.99999,0 8.75977,4.358296 8.75977,9.238281 0,4.879984 -3.75978,9.201172 -8.75977,9.201172 -2.27999,0 -4.83906,-0.719537 -6.03906,-2.519532 V 30 h -6 V 0 Z M 94.320312,2.8007812 c 1.919994,0 3.519532,1.5595375 3.519532,3.5195313 0,1.9199939 -1.599538,3.5195313 -3.519532,3.5195313 -1.959989,0 -3.521484,-1.5995374 -3.521484,-3.5195313 0,-1.9599938 1.561495,-3.5195313 3.521484,-3.5195313 z M 348.03906,5.640625 h 5.95899 v 6.71875 h 3.20117 V 17 h -3.20117 v 13 h -5.95899 V 17 h -3.20117 v -4.640625 h 3.20117 z M 34.878906,11.960938 c 5.359983,0 9.800782,3.199861 9.800782,8.839843 0,0.359999 -0.03906,0.759142 -0.03906,1.119141 H 30.958984 c 0,2.039993 1.440789,4.199219 3.800782,4.199219 2.119993,0 3.440469,-1.399692 3.480468,-2.679688 h 6.119141 c -1.039997,4.639985 -4.800484,6.960938 -9.480469,6.960938 -6.07998,0 -10.279297,-3.60119 -10.279297,-9.201172 0,-5.519983 4.359316,-9.238281 10.279297,-9.238281 z m 78.080074,0 c 0.52,0 1.32079,0.158438 1.80079,0.398437 v 5.441406 h -0.0801 c -0.6,-0.719997 -1.4804,-1 -2.40039,-1 -2.24,0 -3.95899,2.278444 -3.95899,4.398438 V 30 h -6 V 12.359375 h 6 v 2.160156 c 0.92,-1.319996 2.43868,-2.558593 4.63867,-2.558593 z m 12.36133,0 c 4.63999,0 8.0386,1.719778 8.5586,5.759765 H 128 c -0.2,-1.599995 -1.67985,-2.041015 -2.83984,-2.041015 -1.16,-1e-6 -2.40039,0.600632 -2.40039,1.640624 0,2.479993 11.40039,-0.03959 11.40039,7.400391 0,4.159987 -3.56166,5.679688 -8.68164,5.679688 -5.23999,0 -9.19954,-1.960954 -9.51954,-6.960938 h 5.96094 c 0,2.639992 2.35969,2.800781 3.67969,2.800781 1.36,0 2.51953,-0.520471 2.51953,-1.480468 0,-3.719989 -11.40039,-0.79924 -11.40039,-7.199219 0,-3.599989 2.76158,-5.59961 8.60156,-5.599609 z m 30.19922,0 c 2.23999,0 4.47907,0.638599 6.03906,2.558593 v -2.11914 h 6 V 30 h -6 v -2.119141 c -1.19999,1.799995 -3.79907,2.519532 -6.03906,2.519532 -4.99998,0 -8.75976,-4.321188 -8.75976,-9.201172 0,-4.879985 3.75978,-9.238281 8.75976,-9.238281 z m 50.71875,0 c 5.35998,0 9.80078,3.199861 9.80078,8.839843 0,0.359999 -0.041,0.759142 -0.041,1.119141 h -13.67969 c 0,2.039993 1.44079,4.199219 3.80078,4.199219 2.11999,0 3.44047,-1.399692 3.48047,-2.679688 h 6.11914 c -1.04,4.639985 -4.80048,6.960938 -9.48047,6.960938 -6.07998,0 -10.2793,-3.60119 -10.2793,-9.201172 0,-5.519983 4.35932,-9.238281 10.2793,-9.238281 z m 25,0 c 4.71999,0 6.64063,3.239077 6.64063,8.039062 v 10 h -6 V 20 c 0,-2.079993 -0.7997,-3.199219 -2.67969,-3.199219 -1.88,0 -3.36133,1.998445 -3.36133,4.398438 V 30 h -5.99805 V 12.359375 h 5.99805 v 2.160156 c 1.2,-1.519995 3.0804,-2.558593 5.40039,-2.558593 z m 43.20117,0 c 2.24,0 4.47907,0.638599 6.03907,2.558593 v -2.11914 h 6 V 30 h -6 v -2.119141 c -1.2,1.799995 -3.79907,2.519532 -6.03907,2.519532 -4.99998,0 -8.76172,-4.321188 -8.76172,-9.201172 0,-4.879985 3.76174,-9.238281 8.76172,-9.238281 z m 38.23828,0 c 4.71999,0 6.64063,3.239077 6.64063,8.039062 v 10 h -6 V 20 c 0,-2.079993 -0.79969,-3.199219 -2.67969,-3.199219 -1.87999,0 -3.35937,1.998445 -3.35937,4.398438 V 30 h -6 V 12.359375 h 6 v 2.160156 c 1.19999,-1.519995 3.07844,-2.558593 5.39843,-2.558593 z m 57,0 c 5.35999,0 9.80079,3.199861 9.80079,8.839843 0,0.359999 -0.041,0.759142 -0.041,1.119141 h -13.67969 c 0,2.039993 1.44079,4.199219 3.80078,4.199219 2.12,0 3.44047,-1.399692 3.48047,-2.679688 h 6.11914 c -1.03999,4.639985 -4.80048,6.960938 -9.48047,6.960938 -6.07998,0 -10.27929,-3.60119 -10.27929,-9.201172 0,-5.519983 4.35931,-9.238281 10.27929,-9.238281 z m 21.36133,0 c 4.63999,0 8.0386,1.719778 8.5586,5.759765 h -5.87891 c -0.2,-1.599995 -1.67985,-2.041015 -2.83984,-2.041015 -1.16,-1e-6 -2.40039,0.600632 -2.40039,1.640624 0,2.479993 11.40039,-0.03959 11.40039,7.400391 0,4.159987 -3.56166,5.679688 -8.68164,5.679688 -5.23999,0 -9.19954,-1.960954 -9.51954,-6.960938 h 5.96094 c 0,2.639992 2.35969,2.800781 3.67969,2.800781 1.36,0 2.51953,-0.520471 2.51953,-1.480468 0,-3.719989 -11.40039,-0.79924 -11.40039,-7.199219 0,-3.599989 2.76158,-5.59961 8.60156,-5.599609 z m 33.31836,0 c 2.23999,0 4.24047,0.998053 5.48047,2.998046 1.72,-2.199993 3.67946,-2.998046 6.43945,-2.998046 4.59999,0 6.80079,3.719311 6.80078,8.279296 V 30 h -6 v -9.759766 c 10e-6,-1.719994 -0.56055,-3.439453 -2.56054,-3.439453 -2.31999,0 -3.24024,2.238292 -3.24024,4.238281 V 30 h -6 v -9.759766 c 0,-1.719994 -0.5586,-3.439453 -2.55859,-3.439453 -2.03999,0 -3.24023,2.638443 -3.24023,4.398438 V 30 h -6 V 12.359375 h 6 v 2.160156 c 1.19999,-1.519995 2.91891,-2.558593 4.8789,-2.558593 z m 32.20117,0 c 5.35999,0 9.79883,3.199861 9.79883,8.839843 0,0.359999 -0.0391,0.759142 -0.0391,1.119141 h -13.67969 c 0,2.039993 1.43884,4.199219 3.79883,4.199219 2.11999,0 3.44047,-1.399692 3.48047,-2.679688 h 6.11914 c -1.04,4.639985 -4.79853,6.960938 -9.47852,6.960938 -6.07998,0 -10.28125,-3.60119 -10.28125,-9.201172 0,-5.519983 4.36127,-9.238281 10.28125,-9.238281 z m 21.35938,0 c 4.63998,0 8.04055,1.719778 8.56055,5.759765 h -5.88086 c -0.2,-1.599995 -1.67985,-2.041015 -2.83985,-2.041015 -1.15999,-1e-6 -2.40039,0.600632 -2.40039,1.640624 0,2.479993 11.40039,-0.03959 11.40039,7.400391 0,4.159987 -3.5597,5.679688 -8.67969,5.679688 -5.23994,0 -9.19953,-1.960954 -9.51953,-6.960938 h 5.95899 c 0,2.639992 2.35969,2.800781 3.67969,2.800781 1.35999,0 2.51953,-0.520471 2.51953,-1.480468 0,-3.719989 -11.39844,-0.79924 -11.39844,-7.199219 0,-3.599989 2.75963,-5.59961 8.59961,-5.599609 z m 20.19922,0 c 4.63998,0 8.04055,1.719778 8.56054,5.759765 h -5.88085 c -0.2,-1.599995 -1.67985,-2.041015 -2.83985,-2.041015 -1.16,-1e-6 -2.40039,0.600632 -2.40039,1.640624 0,2.479993 11.40039,-0.03959 11.40039,7.400391 0,4.159987 -3.5597,5.679688 -8.67969,5.679688 -5.23998,0 -9.19953,-1.960954 -9.51953,-6.960938 h 5.95899 c 0,2.639992 2.36164,2.800781 3.68164,2.800781 1.35999,0 2.51953,-0.520471 2.51953,-1.480468 0,-3.719989 -11.40039,-0.79924 -11.40039,-7.199219 0,-3.599989 2.75963,-5.59961 8.59961,-5.599609 z m 20.20117,0 c 2.23999,0 4.47907,0.638599 6.03906,2.558593 v -2.11914 h 6 V 30 h -6 v -2.119141 c -1.19999,1.799995 -3.79907,2.519532 -6.03906,2.519532 -4.99998,0 -8.76172,-4.321188 -8.76172,-9.201172 0,-4.879985 3.76174,-9.238281 8.76172,-9.238281 z m 50.71875,0 c 5.35998,0 9.80078,3.199861 9.80078,8.839843 0,0.359999 -0.041,0.759142 -0.041,1.119141 H 565.1172 c 0,2.039993 1.44079,4.199219 3.80078,4.199219 2.11999,0 3.43851,-1.399692 3.47851,-2.679688 h 6.1211 c -1.04,4.639985 -4.80049,6.960938 -9.48047,6.960938 -6.07998,0 -10.2793,-3.60119 -10.2793,-9.201172 0,-5.519983 4.35932,-9.238281 10.2793,-9.238281 z m 21.35937,0 c 4.63999,0 8.04055,1.719778 8.56055,5.759765 h -5.87891 c -0.19995,-1.599995 -1.6818,-2.041015 -2.84179,-2.041015 -1.16,-1e-6 -2.39844,0.600632 -2.39844,1.640624 0,2.479993 11.39844,-0.03959 11.39844,7.400391 0,4.159987 -3.55971,5.679688 -8.67969,5.679688 -5.23998,0 -9.19953,-1.960954 -9.51953,-6.960938 h 5.96094 c 0,2.639992 2.35969,2.800781 3.67968,2.800781 1.36,0 2.51954,-0.520471 2.51954,-1.480468 0,-3.719989 -11.40039,-0.79924 -11.40039,-7.199219 0,-3.599989 2.75962,-5.59961 8.5996,-5.599609 z m 30.20118,0 c 2.23999,0 4.47906,0.638599 6.03906,2.558593 v -2.11914 h 6 V 30 h -6 v -2.119141 c -1.2,1.799995 -3.79907,2.519532 -6.03906,2.519532 -4.99999,0 -8.75977,-4.321188 -8.75977,-9.201172 0,-4.879985 3.75978,-9.238281 8.75977,-9.238281 z m 49.19922,0 c 4.63994,0 8.04054,1.719778 8.56054,5.759765 h -5.88086 c -0.2,-1.599995 -1.67984,-2.041015 -2.83984,-2.041015 -1.16,-1e-6 -2.40039,0.600632 -2.40039,1.640624 0,2.479993 11.40039,-0.03959 11.40039,7.400391 0,4.159987 -3.55971,5.679688 -8.67969,5.679688 -5.23998,0 -9.19953,-1.960954 -9.51953,-6.960938 h 5.95898 c 0,2.639992 2.3597,2.800781 3.67969,2.800781 1.36,0 2.52149,-0.520471 2.52149,-1.480468 0,-3.719989 -11.40039,-0.79924 -11.40039,-7.199219 0,-3.599989 2.75962,-5.59961 8.59961,-5.599609 z m 21.24023,0 c 5.71998,0 9.35867,3.398528 9.63867,7.478515 h -5.95898 c -0.08,-1.719994 -1.40048,-2.798828 -3.48047,-2.798828 -2.71999,0 -3.59961,2.599616 -3.59961,4.599609 0,2.039994 0.79962,4.59961 3.59961,4.59961 1.83999,0 3.28047,-0.800396 3.48047,-2.400391 h 5.83984 c -0.6,3.919988 -4.15955,6.960938 -9.51953,6.960938 -6.11998,0 -9.80078,-4.161188 -9.80078,-9.201172 0,-5.039984 3.9208,-9.238282 9.80078,-9.238281 z m 22.55859,0 c 5.35999,0 9.80078,3.199861 9.80078,8.839843 0,0.359999 -0.0391,0.759142 -0.0391,1.119141 h -13.68164 c 0,2.039993 1.44079,4.199219 3.80078,4.199219 2.12,0 3.44047,-1.399692 3.48047,-2.679688 h 6.11914 c -1.03999,4.639985 -4.80048,6.960938 -9.48047,6.960938 -6.07998,0 -10.27929,-3.60119 -10.27929,-9.201172 0,-5.519983 4.35931,-9.238281 10.27929,-9.238281 z m 25,0 c 4.71999,0 6.64063,3.239077 6.64063,8.039062 v 10 h -6 V 20 c 0,-2.079993 -0.7997,-3.199219 -2.67969,-3.199219 -1.87999,0 -3.35937,1.998445 -3.35937,4.398438 V 30 h -6 V 12.359375 h 6 v 2.160156 c 1.19999,-1.519995 3.07844,-2.558593 5.39843,-2.558593 z m 19.64063,0 c 5.71998,0 9.36062,3.398528 9.64062,7.478515 h -5.96093 c -0.08,-1.719994 -1.40048,-2.798828 -3.48047,-2.798828 -2.71999,0 -3.59961,2.599616 -3.59961,4.599609 0,2.039994 0.79962,4.59961 3.59961,4.59961 1.83999,0 3.28047,-0.800396 3.48047,-2.400391 h 5.83984 c -0.6,3.919988 -4.15955,6.960938 -9.51953,6.960938 -6.11998,0 -9.80078,-4.161188 -9.80078,-9.201172 0,-5.039984 3.9208,-9.238282 9.80078,-9.238281 z m 22.56055,0 c 5.35994,0 9.79882,3.199861 9.79882,8.839843 0,0.359999 -0.0391,0.759142 -0.0391,1.119141 h -13.67969 c 0,2.039993 1.43884,4.199219 3.79883,4.199219 2.11999,0 3.44047,-1.399692 3.48047,-2.679688 h 6.11914 c -1.04,4.639985 -4.79857,6.960938 -9.47851,6.960938 -6.07999,0 -10.28126,-3.60119 -10.28126,-9.201172 0,-5.519983 4.36127,-9.238281 10.28126,-9.238281 z M 77.279297,12 c 5.479982,0 10.041015,3.679236 10.041015,9.199219 10e-7,5.639982 -4.441033,9.160156 -10.041015,9.160156 -5.639982,0 -10.080078,-3.520174 -10.080078,-9.160156 C 67.199219,15.679236 71.759314,12 77.279297,12 Z m 255.318363,0 c 5.47998,0 10.04101,3.679236 10.04101,9.199219 0,5.639982 -4.44103,9.160156 -10.04101,9.160156 -5.63999,0 -10.08008,-3.520174 -10.08008,-9.160156 C 322.51758,15.679236 327.07767,12 332.59766,12 Z M 45.679688,12.359375 h 6.041015 l 4.199219,12.599609 4.199219,-12.599609 h 6.080078 L 59.480469,30 h -7.080078 z m 45.640624,0 h 6 V 30 h -6 z M 35,15.800781 c -3.759988,0 -3.960938,3.279297 -3.960938,3.279297 h 7.88086 c 0,0 -0.279934,-3.279297 -3.919922,-3.279297 z m 171.35938,0 c -3.75999,0 -3.96094,3.279297 -3.96094,3.279297 h 7.88086 c 0,0 -0.27998,-3.279297 -3.91992,-3.279297 z m 163.43945,0 c -3.75999,0 -3.96094,3.279297 -3.96094,3.279297 h 7.88086 c 0,0 -0.27993,-3.279297 -3.91992,-3.279297 z m 86.8789,0 c -3.75998,0 -3.95898,3.279297 -3.95898,3.279297 h 7.87891 c 0,0 -0.27994,-3.279297 -3.91993,-3.279297 z m 112.48047,0 c -3.75998,0 -3.96093,3.279297 -3.96093,3.279297 h 7.88085 c 10e-6,0 -0.27993,-3.279297 -3.91992,-3.279297 z m 144.5586,0 c -3.75999,0 -3.96094,3.279297 -3.96094,3.279297 h 7.88086 c 0,0 -0.27993,-3.279297 -3.91992,-3.279297 z m 67.19922,0 c -3.75999,0 -3.95899,3.279297 -3.95899,3.279297 h 7.87891 c 0,0 -0.27994,-3.279297 -3.91992,-3.279297 z M 77.279297,16.679688 c -3.15999,-10e-7 -4.119141,2.360553 -4.119141,4.560546 0,2.239993 0.879151,4.59961 4.119141,4.59961 3.19999,0 4.080078,-2.359617 4.080078,-4.59961 0,-2.199993 -0.960088,-4.560547 -4.080078,-4.560546 z m 255.318363,0 c -3.15999,-10e-7 -4.11914,2.360553 -4.11914,4.560546 0,2.239993 0.87915,4.59961 4.11914,4.59961 3.19999,0 4.08007,-2.359617 4.08007,-4.59961 0,-2.199993 -0.96008,-4.560547 -4.08007,-4.560546 z m -150.63868,0.08008 c -2.39999,0 -4.19921,2.080398 -4.19921,4.40039 0,2.359993 1.79922,4.439453 4.19921,4.439453 2.4,0 4.19922,-2.07946 4.19922,-4.439453 0,-2.319992 -1.79922,-4.40039 -4.19922,-4.40039 z m 362.79883,0 c -2.39999,0 -4.20117,2.080398 -4.20117,4.40039 0,2.359993 1.80118,4.439453 4.20117,4.439453 2.39999,0 4.19922,-2.07946 4.19922,-4.439453 0,-2.319992 -1.79923,-4.40039 -4.19922,-4.40039 z m -534.158201,0.04102 c -2.3999904,0 -4.1992184,2.078445 -4.1992184,4.398438 0,2.319992 1.799228,4.40039 4.1992184,4.40039 2.399993,0 4.201172,-2.080398 4.201172,-4.40039 0,-2.319993 -1.801179,-4.398438 -4.201172,-4.398438 z m 146.759771,0 c -2.4,0 -4.20118,2.078445 -4.20118,4.398438 0,2.319992 1.80118,4.40039 4.20118,4.40039 2.39995,0 4.19921,-2.080398 4.19921,-4.40039 0,-2.319993 -1.79926,-4.398438 -4.19921,-4.398438 z m 94.32031,0 c -2.39999,0 -4.20117,2.078445 -4.20117,4.398438 0,2.319992 1.80118,4.40039 4.20117,4.40039 2.39999,0 4.19922,-2.080398 4.19922,-4.40039 0,-2.319993 -1.79923,-4.398438 -4.19922,-4.398438 z m 24.59961,0 c -2.4,0 -4.20118,2.078445 -4.20118,4.398438 0,2.319992 1.80118,4.40039 4.20118,4.40039 2.39999,0 4.19922,-2.080398 4.19922,-4.40039 0,-2.319993 -1.79923,-4.398438 -4.19922,-4.398438 z m 243.8789,0 c -2.39999,0 -4.20117,2.078445 -4.20117,4.398438 0,2.319992 1.80118,4.40039 4.20117,4.40039 2.4,0 4.19922,-2.080398 4.19922,-4.40039 0,-2.319993 -1.79922,-4.398438 -4.19922,-4.398438 z m 102.2793,0 c -2.39999,0 -4.20117,2.078445 -4.20117,4.398438 0,2.319992 1.80118,4.40039 4.20117,4.40039 2.39999,0 4.19922,-2.080398 4.19922,-4.40039 0,-2.319993 -1.79923,-4.398438 -4.19922,-4.398438 z m 25.19922,0 c -2.39999,0 -4.19922,2.078445 -4.19922,4.398438 0,2.319992 1.79923,4.40039 4.19922,4.40039 2.39999,0 4.19922,-2.080398 4.19922,-4.40039 0,-2.319993 -1.79923,-4.398438 -4.19922,-4.398438 z"
         id="rect17712"
         transform="matrix(0.26458333,0,0,0.26458333,-0.10983725,6.4803994)"
         sodipodi:nodetypes="ccscccccccccccsccccccsscssscccscccccccssscccccccccccccsscssscccsccccccccsccssssccssccccssscccccssssscccccccccccccssccsccsssscccsscccccsssccssssccsssssccccccsssssccsccssssssccssscccccssccccccsssssccssscccccsssccsccsssssccssssccssssscssccsssccssscccccsssccsccsssssccssssccsssssccssssccsssssccccccsssssccsccsssssccssssccsssssccccccssssccssssccsssssccsssccsssssccsccssssssccssscccccssccsssccsssssccsccsssssssssssssscccccccccccccsccssccssccssccsscsssccssccssssssssssssssssssssssssssssssssssssssssssssssssssssssss" />
      <path
         d="M 137.61453,26.071784 V 36.6546 h 52.70479 v -4.042131 c 0,1.100664 -0.94184,1.502751 -2.2965,1.502751 -1.38641,0 -2.43405,-0.518836 -2.51871,-1.841748 h 1.57665 c 0,0.698498 0.62434,0.74104 0.97359,0.74104 0.35983,0 0.66662,-0.137708 0.66662,-0.391707 0,-0.984247 -3.01584,-0.211466 -3.01584,-1.904794 0,-0.952497 0.73016,-1.481563 2.27532,-1.481562 1.22766,0 2.12739,0.455024 2.26498,1.523937 h -1.55598 c -0.0529,-0.423332 -0.44446,-0.540018 -0.75138,-0.540018 -0.30691,-1e-6 -0.6351,0.158917 -0.6351,0.434081 0,0.656165 3.01635,-0.01047 3.01635,1.95802 v -6.540685 h -44.33321 v 3.841625 c 0.41275,-0.507998 0.99459,-0.67696 1.59784,-0.67696 1.32291,0 2.31769,1.153132 2.31769,2.444294 0,1.291163 -0.99478,2.434477 -2.31769,2.434477 -0.60325,0 -1.28034,-0.190377 -1.59784,-0.666626 v 0.560689 h -1.5875 v -7.937499 z m 2.32854,3.164665 c 0.59266,0 1.18509,0.168962 1.59784,0.67696 v -0.560688 h 1.5875 v 4.656562 h -1.5875 v -0.560689 c -0.3175,0.476249 -1.00518,0.666626 -1.59784,0.666626 -1.32291,0 -2.31769,-1.143314 -2.31769,-2.434477 0,-1.291162 0.99478,-2.444294 2.31769,-2.444294 z m 13.01729,0 c 1.22766,0 2.1274,0.455024 2.26498,1.523937 h -1.55598 c -0.0529,-0.423332 -0.44445,-0.540018 -0.75137,-0.540018 -0.30692,-1e-6 -0.6351,0.158917 -0.6351,0.434081 0,0.656165 3.01635,-0.01047 3.01635,1.95802 0,1.100664 -0.94184,1.502751 -2.2965,1.502751 -1.38641,0 -2.43404,-0.518836 -2.51871,-1.841748 h 1.57665 c 0,0.698498 0.62433,0.74104 0.97358,0.74104 0.35983,0 0.66714,-0.137708 0.66714,-0.391707 0,-0.984247 -3.01635,-0.211466 -3.01635,-1.904794 0,-0.952497 0.73015,-1.481563 2.27531,-1.481562 z m 5.61982,0 c 1.51341,0 2.47614,0.899193 2.55023,1.97869 h -1.57665 c -0.0212,-0.455082 -0.37054,-0.740524 -0.92087,-0.740524 -0.71967,0 -0.9524,0.687815 -0.9524,1.21698 0,0.539749 0.21157,1.21698 0.9524,1.21698 0.48683,0 0.86795,-0.211771 0.92087,-0.635103 h 1.54512 c -0.15875,1.037163 -1.10054,1.841748 -2.5187,1.841748 -1.61925,0 -2.59313,-1.100981 -2.59313,-2.434477 0,-1.333495 1.03738,-2.444295 2.59313,-2.444294 z m 5.96862,0 c 1.41817,0 2.59313,0.846629 2.59313,2.338874 0,0.09525 -0.0103,0.200857 -0.0103,0.296106 h -3.61994 c 0,0.539749 0.38121,1.111044 1.00562,1.111044 0.56092,0 0.9103,-0.370335 0.92088,-0.709001 h 1.61902 c -0.27516,1.227663 -1.27013,1.841748 -2.50837,1.841748 -1.60866,0 -2.71973,-0.952815 -2.71973,-2.434477 0,-1.460495 1.1534,-2.444294 2.71973,-2.444294 z m 6.61459,0 c 1.24883,0 1.757,0.857005 1.757,2.127001 v 2.645833 h -1.5875 V 31.36345 c 0,-0.550331 -0.21159,-0.84646 -0.70901,-0.84646 -0.49741,0 -0.88883,0.528755 -0.88883,1.163753 v 2.32854 h -1.5875 v -4.667415 h 1.5875 v 0.571541 c 0.3175,-0.402165 0.81451,-0.67696 1.42834,-0.67696 z m 5.19658,0 c 1.51341,0 2.47666,0.899193 2.55075,1.97869 h -1.57717 c -0.0212,-0.455082 -0.37054,-0.740524 -0.92087,-0.740524 -0.71966,0 -0.9524,0.687815 -0.9524,1.21698 0,0.539749 0.21157,1.21698 0.9524,1.21698 0.48683,0 0.86796,-0.211771 0.92087,-0.635103 h 1.54513 c -0.15875,1.037163 -1.10055,1.841748 -2.51871,1.841748 -1.61925,0 -2.59312,-1.100981 -2.59312,-2.434477 0,-1.333495 1.03737,-2.444295 2.59312,-2.444294 z m 5.96914,0 c 1.41816,0 2.59261,0.846629 2.59261,2.338874 0,0.09525 -0.0104,0.200857 -0.0104,0.296106 h -3.61942 c 0,0.539749 0.38069,1.111044 1.00511,1.111044 0.56091,0 0.91029,-0.370335 0.92087,-0.709001 h 1.61903 c -0.27517,1.227663 -1.26963,1.841748 -2.50786,1.841748 -1.60866,0 -2.72025,-0.952815 -2.72025,-2.434477 0,-1.460495 1.15392,-2.444294 2.72025,-2.444294 z m -17.74827,1.015958 c -0.99483,0 -1.048,0.867647 -1.048,0.867647 h 2.08515 c 0,0 -0.0741,-0.867647 -1.03715,-0.867647 z m 17.7798,0 c -0.99483,0 -1.04749,0.867647 -1.04749,0.867647 h 2.08463 c 0,0 -0.0741,-0.867647 -1.03714,-0.867647 z m -41.93078,0.264585 c -0.635,0 -1.11156,0.549922 -1.11156,1.163753 0,0.613831 0.47656,1.16427 1.11156,1.16427 0.635,0 1.11105,-0.550439 1.11105,-1.16427 0,-0.613831 -0.47605,-1.163753 -1.11105,-1.163753 z m 6.6673,0 c -0.635,0 -1.11105,0.549922 -1.11105,1.163753 0,0.613831 0.47605,1.16427 1.11105,1.16427 0.63499,0 1.11104,-0.550439 1.11104,-1.16427 0,-0.613831 -0.47605,-1.163753 -1.11104,-1.163753 z"
         style="color:#000000;-inkscape-font-specification:'Glacial Indifference';fill:#ff8100;stroke-width:2.10989;-inkscape-stroke:none"
         id="path37413" />
      <rect
         style="font-size:10.5833px;line-height:1.25;font-family:'Glacial Indifference';-inkscape-font-specification:'Glacial Indifference';fill:#ff8100;fill-opacity:1;stroke:none;stroke-width:2.30973"
         id="rect17712-5"
         width="215.84798"
         height="12.608026"
         x="-4.1593986"
         y="111.08247" />
      <text
         xml:space="preserve"
         style="font-size:10.5833px;line-height:1.25;font-family:'Glacial Indifference';-inkscape-font-specification:'Glacial Indifference';stroke-width:0.0700042"
         x="-4.0515957"
         y="120.25123"
         id="text23710-9"><tspan
           sodipodi:role="line"
           id="tspan23708-4"
           style="stroke-width:0.0700042"
           x="-4.0515957"
           y="120.25123">devoirs agenda notes messages abscences</tspan></text>
      <path
         id="rect17712-5-7"
         style="font-size:10.5833px;line-height:1.25;font-family:'Glacial Indifference';-inkscape-font-specification:'Glacial Indifference';fill:#ff8100;fill-opacity:1;stroke:none;stroke-width:8.74053"
         d="m 4.2734375,233.56055 v 47.65234 H 143.89648 v -47.65234 z m 145.9863325,0 v 47.65234 h 146.72461 v -47.65234 z m 155.21093,0 v 47.65234 h 104.65039 v -47.65234 z m 111.36914,0 v 47.65234 h 192.68555 v -47.65234 z m 199.4043,0 v 47.65234 h 205.85742 v -47.65234 z m -594.58789,4.65429 h 6 v 30 h -6 v -2.12109 c -1.199996,1.79999 -3.801023,2.51953 -6.041016,2.51953 -4.999984,0 -8.7597652,-4.31923 -8.7597652,-9.19922 0,-4.87998 3.7597812,-9.24023 8.7597652,-9.24023 2.239993,0 4.481021,0.64055 6.041016,2.56055 z m 241.07813,0 h 6 v 30 h -6 v -2.12109 c -1.2,1.79999 -3.79907,2.51953 -6.03907,2.51953 -4.99998,0 -8.75976,-4.31923 -8.75976,-9.19922 0,-4.87998 3.75978,-9.24023 8.75976,-9.24023 2.24,0 4.47907,0.64055 6.03907,2.56055 z m 381.55859,0 h 6 v 14.51954 c 1.55999,-1.92 3.75907,-2.56055 6.03906,-2.56055 4.99999,0 8.76172,4.36025 8.76172,9.24023 0,4.87999 -3.76173,9.19922 -8.76172,9.19922 -2.27999,0 -4.83907,-0.71954 -6.03906,-2.51953 v 2.12109 h -6 z m -543.11719,2.79883 c 1.92,0 3.51953,1.56149 3.51953,3.52149 0,1.91999 -1.59953,3.51953 -3.51953,3.51953 -1.959989,0 -3.51953,-1.59954 -3.51953,-3.51953 0,-1.96 1.559541,-3.52149 3.51953,-3.52149 z m 253.71875,2.83985 h 5.95899 v 6.7207 h 3.20117 v 4.64062 h -3.20117 v 13 h -5.95899 v -13 h -3.19922 v -4.64062 h 3.19922 z m -313.158202,6.32031 c 5.359983,0 9.798828,3.19986 9.798828,8.83984 0,0.36 -0.03906,0.7611 -0.03906,1.1211 h -13.67969 c 0,2.03999 1.438836,4.19921 3.798828,4.19921 2.119994,0 3.440469,-1.39969 3.480469,-2.67968 h 6.121094 c -1.039997,4.63998 -4.800484,6.95898 -9.480469,6.95898 -6.079981,0 -10.28125,-3.59924 -10.28125,-9.19922 0,-5.51998 4.361269,-9.24023 10.28125,-9.24023 z m 78.080082,0 c 0.51999,0 1.31883,0.16039 1.79882,0.40039 v 5.43945 h -0.0801 c -0.6,-0.72 -1.4804,-1 -2.40039,-1 -2.24,0 -3.95899,2.2804 -3.95899,4.40039 v 8.80078 h -6 v -17.64062 h 6 v 2.16016 c 0.92,-1.32 2.44063,-2.56055 4.64063,-2.56055 z m 12.35937,0 c 4.63999,0 8.04055,1.71978 8.56055,5.75976 h -5.88086 c -0.2,-1.59999 -1.67985,-2.03906 -2.83985,-2.03906 -1.15995,0 -2.40039,0.60063 -2.40039,1.64063 0,2.47999 11.40039,-0.0415 11.40039,7.39843 10e-6,4.15999 -3.5597,5.67969 -8.67968,5.67969 -5.23999,0 -9.19953,-1.959 -9.51953,-6.95898 h 5.95898 c 0,2.63999 2.35969,2.80078 3.67969,2.80078 1.35999,0 2.51953,-0.52047 2.51953,-1.48047 0,-3.71999 -11.39844,-0.80119 -11.39844,-7.20117 0,-3.59999 2.75963,-5.59961 8.59961,-5.59961 z m 30.19922,0 c 2.23999,0 4.48102,0.64055 6.04102,2.56055 v -2.11915 h 6 v 17.59961 h -6 v -2.12109 c -1.2,1.79999 -3.80103,2.51953 -6.04102,2.51953 -4.99998,0 -8.75977,-4.31923 -8.75977,-9.19922 0,-4.87998 3.75979,-9.24023 8.75977,-9.24023 z m 24.59961,0 c 2.23999,0 4.32106,0.56055 6.04101,2.56055 v -2.16016 h 6 v 17.59961 c 10e-6,5.79998 -4.60118,10.04101 -10.20117,10.04101 -4.79998,0 -10.03836,-2.39978 -10.31836,-7.75976 h 6 c 0.44,2.07999 2.08001,3.31836 4,3.31836 2.64,0 4.51954,-2.39993 4.51953,-4.91992 v -2.79883 c -1.19995,1.83999 -3.80102,2.55859 -6.04101,2.55859 -4.99998,0 -8.75977,-4.3583 -8.75977,-9.23828 0,-4.87998 3.75979,-9.20117 8.75977,-9.20117 z m 26.12109,0 c 5.35999,0 9.79883,3.19986 9.79883,8.83984 0,0.36 -0.0391,0.7611 -0.0391,1.1211 h -13.67969 c 0,2.03999 1.43884,4.19921 3.79883,4.19921 2.11999,0 3.44047,-1.39969 3.48047,-2.67968 h 6.11914 c -1.04,4.63998 -4.79853,6.95898 -9.47852,6.95898 -6.07998,0 -10.28125,-3.59924 -10.28125,-9.19922 0,-5.51998 4.36127,-9.24023 10.28125,-9.24023 z m 25,0 c 4.71999,0 6.63867,3.24103 6.63868,8.04101 v 10 h -6 v -10 c 0,-2.07999 -0.7997,-3.20117 -2.67969,-3.20117 -1.88,0 -3.35938,2.0004 -3.35938,4.40039 v 8.80078 h -6 v -17.64062 h 6 v 2.16016 c 1.2,-1.52 3.0804,-2.56055 5.40039,-2.56055 z m 43.19922,0 c 2.23999,0 4.47907,0.64055 6.03906,2.56055 v -2.11915 h 6 v 17.59961 h -6 v -2.12109 c -1.19999,1.79999 -3.79907,2.51953 -6.03906,2.51953 -4.99998,0 -8.75976,-4.31923 -8.75976,-9.19922 0,-4.87998 3.75978,-9.24023 8.75976,-9.24023 z m 38.24024,0 c 4.71998,0 6.63867,3.24103 6.63867,8.04101 v 10 h -6 v -10 c 0,-2.07999 -0.7997,-3.20117 -2.67969,-3.20117 -1.87999,0 -3.35937,2.0004 -3.35937,4.40039 v 8.80078 h -6 v -17.64062 h 6 v 2.16016 c 1.19999,-1.52 3.08039,-2.56055 5.40039,-2.56055 z m 57,0 c 5.35998,0 9.79882,3.19986 9.79882,8.83984 0,0.36 -0.0391,0.7611 -0.0391,1.1211 h -13.67969 c 0,2.03999 1.43884,4.19921 3.79883,4.19921 2.12,0 3.44047,-1.39969 3.48047,-2.67968 h 6.11914 c -1.03999,4.63998 -4.79853,6.95898 -9.47851,6.95898 -6.07998,0 -10.28125,-3.59924 -10.28125,-9.19922 0,-5.51998 4.36127,-9.24023 10.28125,-9.24023 z m 21.35937,0 c 4.63999,0 8.04055,1.71978 8.56055,5.75976 h -5.88086 c -0.2,-1.59999 -1.67989,-2.03906 -2.83984,-2.03906 -1.16,0 -2.4004,0.60063 -2.4004,1.64063 0,2.47999 11.40039,-0.0415 11.4004,7.39843 -10e-6,4.15999 -3.55971,5.67969 -8.67969,5.67969 -5.23999,0 -9.19953,-1.959 -9.51953,-6.95898 h 5.95898 c 0,2.63999 2.35969,2.80078 3.67969,2.80078 1.35999,0 2.51953,-0.52047 2.51953,-1.48047 0,-3.71999 -11.39844,-0.80119 -11.39844,-7.20117 0,-3.59999 2.75963,-5.59961 8.59961,-5.59961 z m 33.32031,0 c 2.24,0 4.23852,1 5.47852,3 1.71999,-2.19999 3.68141,-3 6.44141,-3 4.59998,0 6.79882,3.72126 6.79882,8.28125 v 9.75976 h -6 v -9.75976 c 0,-1.72 -0.56055,-3.44141 -2.56054,-3.44141 -2.32,0 -3.23828,2.24024 -3.23828,4.24024 v 8.96093 h -6 v -9.75976 c 0,-1.72 -0.56056,-3.44141 -2.56055,-3.44141 -2.03999,0 -3.24024,2.6404 -3.24024,4.40039 v 8.80078 h -6 v -17.64062 h 6 v 2.16016 c 1.2,-1.52 2.92087,-2.56055 4.88086,-2.56055 z m 32.19922,0 c 5.35999,0 9.79883,3.19986 9.79883,8.83984 0,0.36 -0.0391,0.7611 -0.0391,1.1211 H 459.4941 c 0,2.03999 1.43884,4.19921 3.79883,4.19921 2.11999,0 3.44047,-1.39969 3.48047,-2.67968 h 6.12109 c -1.04,4.63998 -4.80048,6.95898 -9.48047,6.95898 -6.07998,0 -10.27929,-3.59924 -10.27929,-9.19922 0,-5.51998 4.35931,-9.24023 10.27929,-9.24023 z m 21.35938,0 c 4.63998,0 8.04055,1.71978 8.56054,5.75976 h -5.88086 c -0.19995,-1.59999 -1.67984,-2.03906 -2.83984,-2.03906 -1.16,0 -2.40039,0.60063 -2.40039,1.64063 0,2.47999 11.40039,-0.0415 11.40039,7.39843 0,4.15999 -3.5597,5.67969 -8.67969,5.67969 -5.23998,0 -9.19953,-1.959 -9.51953,-6.95898 h 5.95899 c 0,2.63999 2.36164,2.80078 3.68164,2.80078 1.35999,0 2.51953,-0.52047 2.51953,-1.48047 0,-3.71999 -11.40039,-0.80119 -11.40039,-7.20117 0,-3.59999 2.75963,-5.59961 8.59961,-5.59961 z m 20.20117,0 c 4.63998,0 8.03859,1.71978 8.55859,5.75976 h -5.8789 c -0.2,-1.59999 -1.67985,-2.03906 -2.83985,-2.03906 -1.15999,0 -2.40039,0.60063 -2.40039,1.64063 0,2.47999 11.40039,-0.0415 11.40039,7.39843 0,4.15999 -3.56165,5.67969 -8.68164,5.67969 -5.23998,0 -9.19953,-1.959 -9.51953,-6.95898 h 5.96094 c 0,2.63999 2.35969,2.80078 3.67969,2.80078 1.35999,0 2.51953,-0.52047 2.51953,-1.48047 0,-3.71999 -11.40039,-0.80119 -11.40039,-7.20117 0,-3.59999 2.76158,-5.59961 8.60156,-5.59961 z m 20.19922,0 c 2.23999,0 4.47907,0.64055 6.03906,2.56055 v -2.11915 h 6 v 17.59961 h -6 v -2.12109 c -1.2,1.79999 -3.79907,2.51953 -6.03906,2.51953 -4.99999,0 -8.75977,-4.31923 -8.75977,-9.19922 0,-4.87998 3.75978,-9.24023 8.75977,-9.24023 z m 24.59961,0 c 2.23999,0 4.32102,0.56055 6.04101,2.56055 v -2.16016 h 5.99805 v 17.59961 c 0,5.79998 -4.59924,10.04101 -10.19922,10.04101 -4.79998,0 -10.04031,-2.39978 -10.32031,-7.75976 h 6 c 0.44,2.07999 2.08,3.31836 4,3.31836 2.63999,0 4.52148,-2.39993 4.52148,-4.91992 v -2.79883 c -1.19999,1.83999 -3.80102,2.55859 -6.04101,2.55859 -4.99999,0 -8.75977,-4.3583 -8.75977,-9.23828 0,-4.87998 3.75978,-9.20117 8.75977,-9.20117 z m 26.11914,0 c 5.35998,0 9.80078,3.19986 9.80078,8.83984 0,0.36 -0.0391,0.7611 -0.0391,1.1211 h -13.68164 c 0,2.03999 1.44079,4.19921 3.80078,4.19921 2.11999,0 3.44047,-1.39969 3.48047,-2.67968 h 6.11914 c -1.04,4.63998 -4.80049,6.95898 -9.48047,6.95898 -6.07998,0 -10.2793,-3.59924 -10.2793,-9.19922 0,-5.51998 4.35932,-9.24023 10.2793,-9.24023 z m 21.36133,0 c 4.63998,0 8.03859,1.71978 8.55859,5.75976 h -5.87891 c -0.2,-1.59999 -1.67984,-2.03906 -2.83984,-2.03906 -1.16,0 -2.40039,0.60063 -2.40039,1.64063 0,2.47999 11.40039,-0.0415 11.40039,7.39843 0,4.15999 -3.5597,5.67969 -8.67969,5.67969 -5.23998,0 -9.20148,-1.959 -9.52148,-6.95898 h 5.96094 c 0,2.63999 2.35969,2.80078 3.67968,2.80078 1.36,0 2.51953,-0.52047 2.51953,-1.48047 0,-3.71999 -11.39843,-0.80119 -11.39843,-7.20117 0,-3.59999 2.75962,-5.59961 8.59961,-5.59961 z m 30.19921,0 c 2.24,0 4.47907,0.64055 6.03907,2.56055 v -2.11915 h 6 v 17.59961 h -6 v -2.12109 c -1.2,1.79999 -3.79907,2.51953 -6.03907,2.51953 -4.99994,0 -8.75976,-4.31923 -8.75976,-9.19922 0,-4.87998 3.75982,-9.24023 8.75976,-9.24023 z m 49.19922,0 c 4.63999,0 8.04055,1.71978 8.56055,5.75976 h -5.88086 c -0.2,-1.59999 -1.67985,-2.03906 -2.83984,-2.03906 -1.16,0 -2.39844,0.60063 -2.39844,1.64063 0,2.47999 11.39844,-0.0415 11.39844,7.39843 0,4.15999 -3.55971,5.67969 -8.67969,5.67969 -5.23998,0 -9.19953,-1.959 -9.51953,-6.95898 h 5.95898 c 0,2.63999 2.36165,2.80078 3.68164,2.80078 1.36,0 2.51953,-0.52047 2.51953,-1.48047 10e-6,-3.71999 -11.40039,-0.80119 -11.40039,-7.20117 0,-3.59999 2.75963,-5.59961 8.59961,-5.59961 z m 21.24024,0 c 5.71998,0 9.36062,3.40048 9.64062,7.48047 h -5.96093 c -0.08,-1.72 -1.39853,-2.80078 -3.47852,-2.80078 -2.71999,0 -3.60156,2.60156 -3.60156,4.60156 0,2.03999 0.80157,4.59961 3.60156,4.59961 1.83999,0 3.27852,-0.8004 3.47852,-2.40039 h 5.83984 c -0.6,3.91998 -4.15955,6.95898 -9.51953,6.95898 -6.11998,0 -9.79883,-4.15923 -9.79883,-9.19922 0,-5.03998 3.91885,-9.24023 9.79883,-9.24023 z m 22.56054,0 c 5.35999,0 9.79883,3.19986 9.79883,8.83984 0,0.36 -0.0391,0.7611 -0.0391,1.1211 H 716.5332 c 0,2.03999 1.43884,4.19921 3.79883,4.19921 2.11999,0 3.44047,-1.39969 3.48047,-2.67968 h 6.12109 c -1.03999,4.63998 -4.80048,6.95898 -9.48047,6.95898 -6.07994,0 -10.28125,-3.59924 -10.28124,-9.19922 0,-5.51998 4.3613,-9.24023 10.28124,-9.24023 z m 25,0 c 4.71999,0 6.63868,3.24103 6.63868,8.04101 v 10 h -6 v -10 c 0,-2.07999 -0.7997,-3.20117 -2.67969,-3.20117 -1.87999,0 -3.35938,2.0004 -3.35938,4.40039 v 8.80078 h -6 v -17.64062 h 6 v 2.16016 c 1.2,-1.52 3.08044,-2.56055 5.40039,-2.56055 z m 19.63868,0 c 5.71998,0 9.36062,3.40048 9.64062,7.48047 h -5.96094 c -0.08,-1.72 -1.39852,-2.80078 -3.47851,-2.80078 -2.71999,0 -3.59961,2.60156 -3.59961,4.60156 0,2.03999 0.79962,4.59961 3.59961,4.59961 1.83999,0 3.27852,-0.8004 3.47851,-2.40039 h 5.8418 c -0.6,3.91998 -4.1615,6.95898 -9.52148,6.95898 -6.11998,0 -9.79883,-4.15923 -9.79883,-9.19922 0,-5.03998 3.91885,-9.24023 9.79883,-9.24023 z m 22.56054,0 c 5.35999,0 9.80078,3.19986 9.80078,8.83984 10e-6,0.36 -0.041,0.7611 -0.041,1.1211 h -13.67969 c 0,2.03999 1.44079,4.19921 3.80078,4.19921 2.12,0 3.43852,-1.39969 3.47852,-2.67968 h 6.12109 c -1.03999,4.63998 -4.80048,6.95898 -9.48047,6.95898 -6.07998,0 -10.27929,-3.59924 -10.27929,-9.19922 0,-5.51998 4.35931,-9.24023 10.27929,-9.24023 z m 21.35938,0 c 4.63998,0 8.04055,1.71978 8.56055,5.75976 h -5.88086 c -0.2,-1.59999 -1.67985,-2.03906 -2.83985,-2.03906 -1.15999,0 -2.39842,0.60063 -2.39844,1.64063 10e-6,2.47999 11.39844,-0.0415 11.39844,7.39843 0,4.15999 -3.55974,5.67969 -8.67968,5.67969 -5.23999,0 -9.19954,-1.959 -9.51954,-6.95898 h 5.95899 c 0,2.63999 2.36164,2.80078 3.68164,2.80078 1.35999,0 2.51953,-0.52047 2.51953,-1.48047 0,-3.71999 -11.40039,-0.80119 -11.40039,-7.20117 0,-3.59999 2.75963,-5.59961 8.59961,-5.59961 z m -724.876954,0.041 c 5.479982,0 10.041015,3.67924 10.041015,9.19922 0,5.63998 -4.441033,9.16016 -10.041015,9.16016 -5.639982,0 -10.078125,-3.52018 -10.078125,-9.16016 0,-5.51998 4.558142,-9.19922 10.078125,-9.19922 z m 255.320314,0 c 5.47998,0 10.03906,3.67924 10.03906,9.19922 0,5.63998 -4.43908,9.16016 -10.03906,9.16016 -5.63998,0 -10.08008,-3.52018 -10.08008,-9.16016 0,-5.51998 4.5601,-9.19922 10.08008,-9.19922 z m -286.919924,0.35938 h 6.041016 l 4.199219,12.59961 4.201171,-12.59961 h 6.080079 l -6.720703,17.64062 h -7.080079 z m 45.640625,0 h 5.999999 v 17.64062 h -5.999999 z m -56.320312,3.43945 c -3.759988,0 -3.958985,3.28125 -3.958985,3.28125 h 7.878907 c 0,0 -0.279934,-3.28125 -3.919922,-3.28125 z m 171.359371,0 c -3.75998,0 -3.95898,3.28125 -3.95898,3.28125 h 7.87891 c 0,0 -0.27994,-3.28125 -3.91993,-3.28125 z m 163.43946,0 c -3.75999,0 -3.95899,3.28125 -3.95899,3.28125 h 7.87891 c 0,0 -0.27993,-3.28125 -3.91992,-3.28125 z m 86.8789,0 c -3.75998,0 -3.95898,3.28125 -3.95898,3.28125 h 7.8789 c 0,0 -0.27993,-3.28125 -3.91992,-3.28125 z m 112.48047,0 c -3.75999,0 -3.96094,3.28125 -3.96094,3.28125 h 7.88086 c 0,0 -0.27993,-3.28125 -3.91992,-3.28125 z m 144.5586,0 c -3.75999,0 -3.95899,3.28125 -3.95899,3.28125 h 7.87891 c 0,0 -0.27994,-3.28125 -3.91992,-3.28125 z m 67.19921,0 c -3.75998,0 -3.95898,3.28125 -3.95898,3.28125 h 7.87891 c 0,0 -0.27994,-3.28125 -3.91993,-3.28125 z m -703.636714,0.88086 c -3.15999,0 -4.119141,2.36056 -4.119141,4.56055 0,2.23999 0.879151,4.59961 4.119141,4.59961 3.199989,0 4.080078,-2.35962 4.080078,-4.59961 0,-2.19999 -0.960088,-4.56055 -4.080078,-4.56055 z m 255.320314,0 c -3.15999,0 -4.1211,2.36056 -4.1211,4.56055 0,2.23999 0.88111,4.59961 4.1211,4.59961 3.19999,0 4.08008,-2.35962 4.08008,-4.59961 0,-2.19999 -0.96009,-4.56055 -4.08008,-4.56055 z m -150.64063,0.0801 c -2.39999,0 -4.19922,2.0804 -4.19922,4.40039 0,2.35999 1.79923,4.43945 4.19922,4.43945 2.4,0 4.20118,-2.07946 4.20117,-4.43945 10e-6,-2.31999 -1.80117,-4.40039 -4.20117,-4.40039 z m 362.79883,0 c -2.39999,0 -4.19922,2.0804 -4.19922,4.40039 0,2.35999 1.79923,4.43945 4.19922,4.43945 2.39999,0 4.20117,-2.07946 4.20117,-4.43945 0,-2.31999 -1.80118,-4.40039 -4.20117,-4.40039 z m -534.156249,0.0391 c -2.399992,0 -4.201172,2.0804 -4.201172,4.40039 0,2.32 1.80118,4.40039 4.201172,4.40039 2.399993,0 4.199219,-2.08039 4.199219,-4.40039 0,-2.31999 -1.799226,-4.40039 -4.199219,-4.40039 z m 146.757809,0 c -2.39999,0 -4.19922,2.0804 -4.19922,4.40039 0,2.32 1.79923,4.40039 4.19922,4.40039 2.4,0 4.20118,-2.08039 4.20118,-4.40039 0,-2.31999 -1.80118,-4.40039 -4.20118,-4.40039 z m 94.32032,0 c -2.4,0 -4.20118,2.0804 -4.20118,4.40039 0,2.32 1.80118,4.40039 4.20118,4.40039 2.39999,0 4.19922,-2.08039 4.19922,-4.40039 0,-2.31999 -1.79923,-4.40039 -4.19922,-4.40039 z m 24.59961,0 c -2.4,0 -4.19922,2.0804 -4.19922,4.40039 0,2.32 1.79922,4.40039 4.19922,4.40039 2.39999,0 4.19921,-2.08039 4.19921,-4.40039 0,-2.31999 -1.79922,-4.40039 -4.19921,-4.40039 z m 243.8789,0 c -2.39999,0 -4.19922,2.0804 -4.19922,4.40039 0,2.32 1.79923,4.40039 4.19922,4.40039 2.39999,0 4.19922,-2.08039 4.19922,-4.40039 0,-2.31999 -1.79923,-4.40039 -4.19922,-4.40039 z m 102.2793,0 c -2.39999,0 -4.19922,2.0804 -4.19922,4.40039 0,2.32 1.79923,4.40039 4.19922,4.40039 2.39999,0 4.19922,-2.08039 4.19922,-4.40039 0,-2.31999 -1.79923,-4.40039 -4.19922,-4.40039 z m 25.19922,0 c -2.39999,0 -4.19922,2.0804 -4.19922,4.40039 0,2.32 1.79923,4.40039 4.19922,4.40039 2.39999,0 4.20117,-2.08039 4.20117,-4.40039 0,-2.31999 -1.80118,-4.40039 -4.20117,-4.40039 z"
         transform="matrix(0.26458333,0,0,0.26458333,-0.10983725,6.4803994)"
         sodipodi:nodetypes="ccccccccccccccccccccccccccccccssscccccccssscccccsssccccssssscccccccccccccssccsccsssscccsscccccsssccssssccsssssccccccsssscccssccsscsssssccsccssssssccssscccccssccccccsssssccssscccccsssccsccsssssccssssccssssscssccsssccssscccccsssccsccsssssccssssccsssssccssssccsssssccccccsssscccssccsscsssssccsccsssssccssssccsssssccccccssssccssssccsssssccsssccsssssccsccsssssccssscccccssccsssccsssssccsccsssssccssssccsssssssssssssscccccccccccccsccssccssccssccssccssccssccssssssssssssssssssssssssssssssssssssssssssssssssssssssss" />
      <path
         d="m 118.22007,47.696914 v 12.608015 l 51.92397,0 V 47.696914 Z m 4.41524,4.395597 c 0.59266,0 1.12144,0.264584 1.44952,0.79375 0.45508,-0.58208 0.97404,-0.79375 1.70429,-0.79375 1.21708,0 1.79886,0.984584 1.79886,2.191081 v 2.58227 h -1.5875 v -2.58227 c 0,-0.455083 -0.14832,-0.91054 -0.67748,-0.91054 -0.61383,0 -0.85679,0.592731 -0.85679,1.121897 v 2.370913 h -1.5875 v -2.58227 c 0,-0.455083 -0.14832,-0.91054 -0.67748,-0.91054 -0.53975,0 -0.85732,0.698606 -0.85732,1.16427 v 2.32854 h -1.5875 v -4.667414 h 1.5875 v 0.571542 c 0.3175,-0.402166 0.77282,-0.677479 1.2914,-0.677479 z m 8.51938,0 c 1.41816,0 2.5926,0.84663 2.5926,2.338875 0,0.09525 -0.0103,0.201374 -0.0103,0.296624 h -3.61942 c 0,0.539747 0.3807,1.111041 1.00511,1.111041 0.56092,0 0.91029,-0.370335 0.92088,-0.708999 h 1.61953 c -0.27516,1.227662 -1.27012,1.841231 -2.50837,1.841231 -1.60866,0 -2.71973,-0.952299 -2.71973,-2.433961 0,-1.460494 1.1534,-2.444811 2.71973,-2.444811 z m 5.65133,0 c 1.22766,0 2.1274,0.455026 2.26498,1.523937 h -1.55598 c -0.0529,-0.423331 -0.44446,-0.539501 -0.75137,-0.539501 -0.30692,0 -0.63511,0.158916 -0.63511,0.434083 0,0.656164 3.01636,-0.01098 3.01636,1.957501 0,1.100664 -0.94184,1.502752 -2.29651,1.502752 -1.38641,0 -2.43404,-0.518319 -2.5187,-1.841231 h 1.57665 c 0,0.698498 0.62485,0.74104 0.9741,0.74104 0.35983,0 0.66662,-0.137708 0.66662,-0.391708 0,-0.984247 -3.01635,-0.211981 -3.01635,-1.905309 0,-0.952497 0.73015,-1.481564 2.27531,-1.481564 z m 5.34489,0 c 1.22767,0 2.12688,0.455026 2.26446,1.523937 h -1.55545 c -0.0529,-0.423331 -0.44446,-0.539501 -0.75138,-0.539501 -0.30692,0 -0.6351,0.158916 -0.6351,0.434083 0,0.656164 3.01635,-0.01098 3.01635,1.957501 0,1.100664 -0.94235,1.502752 -2.29702,1.502752 -1.38641,0 -2.43404,-0.518319 -2.51871,-1.841231 h 1.57717 c 0,0.698498 0.62433,0.74104 0.97358,0.74104 0.35983,0 0.66663,-0.137708 0.66663,-0.391708 0,-0.984247 -3.01635,-0.211981 -3.01635,-1.905309 0,-0.952497 0.73066,-1.481564 2.27582,-1.481564 z m 5.34438,0 c 0.59267,0 1.18509,0.169479 1.59784,0.677479 v -0.560692 h 1.5875 v 4.656564 h -1.5875 v -0.561205 c -0.3175,0.476247 -1.00517,0.666626 -1.59784,0.666626 -1.32291,0 -2.31769,-1.142797 -2.31769,-2.433961 0,-1.291161 0.99478,-2.444811 2.31769,-2.444811 z m 6.50865,0 c 0.59266,0 1.14327,0.148313 1.59835,0.677479 v -0.571542 h 1.58698 v 4.656563 c 0,1.534578 -1.21688,2.656684 -2.69854,2.656684 -1.27,0 -2.6565,-0.634941 -2.73058,-2.053103 h 1.5875 c 0.11641,0.550331 0.55033,0.877983 1.05833,0.877983 0.6985,0 1.19631,-0.634982 1.19631,-1.301729 v -0.740524 c -0.3175,0.486831 -1.00569,0.676961 -1.59835,0.676961 -1.32292,0 -2.31769,-1.153134 -2.31769,-2.444295 0,-1.291162 0.99477,-2.434477 2.31769,-2.434477 z m 6.91069,0 c 1.41816,0 2.59312,0.84663 2.59312,2.338875 0,0.09525 -0.0104,0.201374 -0.0104,0.296624 h -3.61993 c 0,0.539747 0.38121,1.111041 1.00562,1.111041 0.56091,0 0.91029,-0.370335 0.92087,-0.708999 h 1.61903 c -0.27517,1.227662 -1.27013,1.841231 -2.50838,1.841231 -1.60866,0 -2.71973,-0.952299 -2.71973,-2.433961 0,-1.460494 1.1534,-2.444811 2.71973,-2.444811 z m 5.65185,0 c 1.22766,0 2.12688,0.455026 2.26446,1.523937 h -1.55546 c -0.0529,-0.423331 -0.44446,-0.539501 -0.75138,-0.539501 -0.30691,0 -0.6351,0.158916 -0.6351,0.434083 0,0.656164 3.01635,-0.01098 3.01635,1.957501 0,1.100664 -0.94183,1.502752 -2.2965,1.502752 -1.38641,0 -2.43456,-0.518319 -2.51922,-1.841231 h 1.57716 c 0,0.698498 0.62434,0.74104 0.97358,0.74104 0.35984,0 0.66663,-0.137708 0.66663,-0.391708 0,-0.984247 -3.01583,-0.211981 -3.01583,-1.905309 0,-0.952497 0.73015,-1.481564 2.27531,-1.481564 z m -35.38027,1.015955 c -0.99483,0 -1.04748,0.868164 -1.04748,0.868164 h 2.08462 c 0,0 -0.0741,-0.868164 -1.03714,-0.868164 z m 29.76046,0 c -0.99483,0 -1.048,0.868164 -1.048,0.868164 h 2.08514 c 0,0 -0.0741,-0.868164 -1.03714,-0.868164 z m -6.45594,0.254254 c -0.635,0 -1.11104,0.55044 -1.11104,1.16427 0,0.624414 0.47604,1.174605 1.11104,1.174605 0.635,0 1.11156,-0.550191 1.11156,-1.174605 0,-0.61383 -0.47656,-1.16427 -1.11156,-1.16427 z m -6.50865,0.01035 c -0.63499,0 -1.11104,0.550439 -1.11104,1.164269 0,0.613834 0.47605,1.16427 1.11104,1.16427 0.635,0 1.11105,-0.550436 1.11105,-1.16427 0,-0.61383 -0.47605,-1.164269 -1.11105,-1.164269 z"
         style="font-size:10.5833px;line-height:1.25;font-family:'Glacial Indifference';-inkscape-font-specification:'Glacial Indifference';fill:#ff8100;fill-opacity:1;stroke:none;stroke-width:2.3126"
         id="path38082"
         sodipodi:nodetypes="cccccscssccsssccssscccccscsccsccssccsccssssccsssssccssssccsssssccccccsssscccssccsscsssssccsccsssssccssssccsssssccssccsssssssssss" />
      <path
         d="M 85.246232,48.25818 V 60.866194 H 113.53029 V 48.25818 Z m 13.40745,2.723348 h 1.576648 v 1.778185 h 0.84698 v 1.227831 h -0.84698 v 3.439583 h -1.576648 v -3.439583 h -0.84646 v -1.227831 h 0.84646 z m -9.3555,1.672248 c 1.248828,0 1.756482,0.857523 1.756482,2.127518 v 2.645833 h -1.5875 v -2.645833 c 0,-0.550331 -0.211587,-0.846977 -0.709001,-0.846977 -0.497414,0 -0.888834,0.529273 -0.888834,1.16427 v 2.32854 h -1.5875 v -4.667414 h 1.5875 v 0.571542 c 0.317498,-0.402166 0.81502,-0.677479 1.428853,-0.677479 z m 15.081248,0 c 1.41816,0 2.59261,0.84663 2.59261,2.338875 0,0.09525 -0.0104,0.201374 -0.0104,0.296624 h -3.61942 c 0,0.539747 0.38069,1.111041 1.00511,1.111041 0.56091,0 0.91029,-0.370335 0.92087,-0.708999 h 1.61902 c -0.27516,1.227662 -1.26961,1.841231 -2.50785,1.841231 -1.60866,0 -2.72025,-0.952299 -2.72025,-2.433961 0,-1.460494 1.15392,-2.444811 2.72025,-2.444811 z m 5.65133,0 c 1.22767,0 2.1274,0.455026 2.26498,1.523937 h -1.55598 c -0.0529,-0.423331 -0.44447,-0.539501 -0.75137,-0.539501 -0.30691,0 -0.6351,0.158916 -0.6351,0.434083 0,0.656164 3.01635,-0.01098 3.01635,1.957501 0,1.100664 -0.94184,1.502752 -2.2965,1.502752 -1.38641,0 -2.43404,-0.518319 -2.51871,-1.841231 h 1.57665 c 0,0.698498 0.62433,0.74104 0.97358,0.74104 0.35983,0 0.66663,-0.137708 0.66663,-0.391708 0,-0.984247 -3.01584,-0.211981 -3.01584,-1.905309 0,-0.952497 0.73015,-1.481564 2.27531,-1.481564 z m -15.462099,0.01085 c 1.449912,0 2.656168,0.973466 2.656168,2.433961 0,1.492244 -1.174506,2.423625 -2.656168,2.423625 -1.492244,0 -2.667021,-0.931381 -2.667021,-2.423625 0,-1.460495 1.206527,-2.433961 2.667021,-2.433961 z m 9.842299,1.005107 c -0.99484,0 -1.04749,0.868164 -1.04749,0.868164 h 2.08463 c 0,0 -0.0741,-0.868164 -1.03714,-0.868164 z m -9.842299,0.233061 c -0.83608,0 -1.090374,0.624565 -1.090374,1.206646 0,0.592664 0.233127,1.21698 1.090374,1.21698 0.846664,0 1.079521,-0.624316 1.079521,-1.21698 0,-0.582081 -0.254023,-1.206646 -1.079521,-1.206646 z"
         style="font-size:10.5833px;line-height:1.25;font-family:'Glacial Indifference';-inkscape-font-specification:'Glacial Indifference';fill:#ff8100;fill-opacity:1;stroke:none;stroke-width:2.3126"
         id="path37966"
         sodipodi:nodetypes="ccccccccccccccccccssccssscccccsssccsccsssssccssssccssssssssssccssssss" />
      <path
         d="M 41.377082,48.445269 V 61.053283 H 80.665689 V 48.445269 Z m 29.852451,1.231447 h 1.5875 v 7.9375 h -1.5875 v -0.561205 c -0.3175,0.476247 -1.005171,0.666626 -1.597837,0.666626 -1.322912,0 -2.317687,-1.142797 -2.317687,-2.433961 0,-1.291161 0.994775,-2.444811 2.317687,-2.444811 0.592666,0 1.185087,0.169479 1.597837,0.677479 z m -26.553419,3.164149 c 0.592664,0 1.185603,0.169479 1.598353,0.677479 v -0.560692 h 1.5875 v 4.656564 h -1.5875 v -0.561205 c -0.3175,0.476247 -1.005689,0.666626 -1.598353,0.666626 -1.322912,0 -2.317689,-1.142797 -2.317689,-2.433961 0,-1.291161 0.994777,-2.444811 2.317689,-2.444811 z m 6.508647,0 c 0.592664,0 1.14328,0.148313 1.59835,0.677479 v -0.571542 h 1.5875 v 4.656563 c 3e-6,1.534578 -1.217395,2.656684 -2.69906,2.656684 -1.269994,0 -2.655982,-0.634941 -2.730066,-2.053103 h 1.5875 c 0.116417,0.550331 0.550336,0.877983 1.058334,0.877983 0.6985,0 1.195795,-0.634982 1.195792,-1.301729 v -0.740524 c -0.317487,0.486831 -1.005686,0.676961 -1.59835,0.676961 -1.322912,0 -2.31769,-1.153134 -2.31769,-2.444295 0,-1.291162 0.994778,-2.434477 2.31769,-2.434477 z m 6.911205,0 c 1.418164,0 2.592607,0.84663 2.592607,2.338875 0,0.09525 -0.01035,0.201374 -0.01035,0.296624 h -3.619418 c 0,0.539747 0.380694,1.111041 1.005108,1.111041 0.560914,0 0.910291,-0.370335 0.920874,-0.708999 h 1.619022 c -0.275166,1.227662 -1.269611,1.841231 -2.507858,1.841231 -1.608661,0 -2.720247,-0.952299 -2.720247,-2.433961 0,-1.460494 1.153919,-2.444811 2.720247,-2.444811 z m 6.614583,0 c 1.248831,0 1.756481,0.857523 1.756484,2.127518 v 2.645833 h -1.5875 v -2.645833 c 0,-0.550331 -0.211587,-0.846977 -0.709001,-0.846977 -0.497417,0 -0.888836,0.529273 -0.888836,1.16427 v 2.32854 h -1.5875 v -4.667414 h 1.5875 v 0.571542 c 0.3175,-0.402166 0.815022,-0.677479 1.428853,-0.677479 z m 11.429794,0 c 0.592664,0 1.185087,0.169479 1.597834,0.677479 v -0.560692 h 1.5875 v 4.656564 h -1.5875 v -0.561205 c -0.317497,0.476247 -1.00517,0.666626 -1.597834,0.666626 -1.322912,0 -2.317687,-1.142797 -2.317687,-2.433961 0,-1.291161 0.994775,-2.444811 2.317687,-2.444811 z M 58.127488,53.85682 c -0.994828,0 -1.04748,0.868164 -1.04748,0.868164 h 2.084628 c 0,0 -0.07407,-0.868164 -1.037148,-0.868164 z m -6.455937,0.254254 c -0.634997,0 -1.111043,0.55044 -1.111043,1.16427 0,0.624414 0.476046,1.174605 1.111043,1.174605 0.635,0 1.111563,-0.550191 1.11156,-1.174605 3e-6,-0.61383 -0.47656,-1.16427 -1.11156,-1.16427 z m -6.508646,0.01035 c -0.634998,0 -1.111044,0.550439 -1.111044,1.164269 0,0.613834 0.476046,1.16427 1.111044,1.16427 0.635,0 1.111562,-0.550436 1.111562,-1.16427 0,-0.61383 -0.476562,-1.164269 -1.111562,-1.164269 z m 24.955584,0 c -0.635,0 -1.111562,0.550439 -1.111562,1.164269 0,0.613834 0.476562,1.16427 1.111562,1.16427 0.634998,0 1.111044,-0.550436 1.111044,-1.16427 0,-0.61383 -0.476046,-1.164269 -1.111044,-1.164269 z m 6.508647,0 c -0.635,0 -1.111043,0.550439 -1.111043,1.164269 0,0.613834 0.476043,1.16427 1.111043,1.16427 0.634998,0 1.111041,-0.550436 1.111041,-1.16427 0,-0.61383 -0.476043,-1.164269 -1.111041,-1.164269 z"
         style="font-size:10.5833px;line-height:1.25;font-family:'Glacial Indifference';-inkscape-font-specification:'Glacial Indifference';fill:#ff8100;fill-opacity:1;stroke:none;stroke-width:2.3126"
         id="path37850"
         sodipodi:nodetypes="ccccccccccsssccsccccccsssscccssccsscsssssccsccssssssccssscccccssccccccssssccsssssssssssssssssssss" />
      <text
         xml:space="preserve"
         style="font-size:10.5833px;line-height:1.25;font-family:'Glacial Indifference';-inkscape-font-specification:'Glacial Indifference';stroke-width:0.0700042"
         x="37.946835"
         y="-1.4416021"
         id="text34744"><tspan
           sodipodi:role="line"
           id="tspan34742"
           style="stroke-width:0.0700042"
           x="37.946835"
           y="-1.4416021"></tspan></text>
      <path
         d="m -47.242656,25.884695 v 5.60896 c 0,-1.291164 0.994775,-2.444295 2.317689,-2.444295 0.592664,0 1.185603,0.168963 1.59835,0.67696 v -3.841625 z m 0,5.60896 v 4.973857 H -11.72286 V 25.884695 h -30.016257 v 7.937499 h -1.5875 v -0.560689 c -0.317497,0.476248 -1.005686,0.666626 -1.59835,0.666626 -1.322914,0 -2.317689,-1.143315 -2.317689,-2.434476 z m 24.955583,-4.867921 c 0.507997,0 0.931209,0.412629 0.931209,0.931209 0,0.508 -0.423212,0.931209 -0.931209,0.931209 -0.518581,0 -0.931725,-0.423209 -0.931725,-0.931209 0,-0.51858 0.413144,-0.931209 0.931725,-0.931209 z m -15.727208,2.423626 c 1.418164,0 2.593126,0.846629 2.593126,2.338874 0,0.09525 -0.01035,0.200856 -0.01035,0.296106 h -3.619932 c 0,0.53975 0.381209,1.111044 1.005623,1.111044 0.560917,0 0.910291,-0.370335 0.920875,-0.709002 h 1.619022 c -0.275164,1.227664 -1.270127,1.841749 -2.508374,1.841749 -1.608662,0 -2.719729,-0.952815 -2.719729,-2.434476 0,-1.460495 1.1534,-2.444295 2.719729,-2.444295 z m 20.658688,0 c 0.137584,0 0.349459,0.04192 0.476459,0.105421 v 1.439703 h -0.02119 c -0.15875,-0.1905 -0.391689,-0.264583 -0.635103,-0.264583 -0.592667,0 -1.047483,0.60284 -1.047483,1.163754 v 2.328539 h -1.5875 v -4.667413 h 1.5875 v 0.571539 c 0.243414,-0.349247 0.645231,-0.67696 1.227312,-0.67696 z m 3.270602,0 c 1.227664,0 2.12688,0.455025 2.264463,1.523936 h -1.555462 c -0.05292,-0.42333 -0.44446,-0.540017 -0.751374,-0.540017 -0.306917,0 -0.635103,0.158917 -0.635103,0.434081 0,0.656166 3.016353,-0.01048 3.016353,1.95802 0,1.100664 -0.942356,1.502751 -2.297017,1.502751 -1.386414,0 -2.434045,-0.518835 -2.518712,-1.841749 h 1.577166 c 0,0.6985 0.624334,0.74104 0.973584,0.74104 0.359834,0 0.666626,-0.137708 0.666626,-0.391705 0,-0.984247 -3.016353,-0.211466 -3.016353,-1.904794 0,-0.952497 0.730668,-1.481563 2.275829,-1.481563 z m -12.71085,0.01035 c 1.449912,0 2.656684,0.973463 2.656684,2.43396 0,1.492245 -1.175022,2.423623 -2.656684,2.423623 -1.492247,0 -2.667021,-0.931378 -2.667021,-2.423623 0,-1.460497 1.206524,-2.43396 2.667021,-2.43396 z m -8.360731,0.09508 h 1.598352 l 1.111043,3.333647 1.111044,-3.333647 h 1.608688 l -1.777669,4.667417 h -1.873272 z m 12.075749,0 h 1.5875 v 4.667417 h -1.5875 z m -14.901417,0.91054 c -0.994831,0 -1.047999,0.867648 -1.047999,0.867648 h 2.085145 c 0,0 -0.07407,-0.867648 -1.037146,-0.867648 z m 11.186399,0.232545 c -0.83608,0 -1.089858,0.624562 -1.089858,1.206643 0,0.592667 0.232611,1.21698 1.089858,1.21698 0.846664,0 1.079519,-0.624313 1.079519,-1.21698 0,-0.582081 -0.254021,-1.206643 -1.079519,-1.206643 z m -17.642335,0.03204 c -0.634998,0 -1.111044,0.549921 -1.111044,1.163751 0,0.613834 0.476046,1.16427 1.111044,1.16427 0.634997,0 1.111559,-0.550436 1.111559,-1.16427 0,-0.61383 -0.476562,-1.163751 -1.111559,-1.163751 z"
         style="color:#000000;-inkscape-font-specification:'Glacial Indifference';fill:#ff8100;stroke-width:2.10989;-inkscape-stroke:none"
         id="path36941" />
      <path
         d="M 0.83094314,26.258873 V 36.841689 H 10.162673 C 8.8949246,36.838953 7.5142838,36.204204 7.4403592,34.789101 h 1.5875 c 0.1164166,0.550332 0.5503359,0.878499 1.0583328,0.878499 0.698498,0 1.195792,-0.634981 1.195792,-1.301729 v -0.74104 c -0.317497,0.486832 -1.00517,0.677478 -1.5978338,0.677478 -1.3229114,0 -2.3176865,-1.153649 -2.3176865,-2.444812 0,-1.291162 0.9947751,-2.43396 2.3176865,-2.43396 0.5926638,0 1.1427538,0.147797 1.5978338,0.676961 v -0.571541 h 1.5875 v 4.656563 c 0,1.532566 -1.213834,2.653231 -2.692857,2.656169 H 37.863825 V 26.258873 h -6.547403 v 7.937499 h -1.5875 v -0.560689 c -0.3175,0.476249 -1.005689,0.666626 -1.598353,0.666626 -1.322911,0 -2.317686,-1.143314 -2.317689,-2.434477 3e-6,-1.291162 0.994778,-2.444295 2.317689,-2.444295 0.592664,0 1.185603,0.168963 1.598353,0.676961 v -3.841625 z m 2.34456026,3.164664 c 0.592664,0 1.1850872,0.168963 1.5978346,0.676961 v -0.560689 h 1.5875 v 4.656563 h -1.5875 v -0.560689 c -0.3174973,0.476249 -1.0051706,0.666626 -1.5978346,0.666626 -1.3229114,0 -2.31768653,-1.143314 -2.31768653,-2.434477 0,-1.291162 0.99477513,-2.444295 2.31768653,-2.444295 z m 13.4193356,0 c 1.418161,0 2.593123,0.84663 2.593123,2.338875 0,0.09525 -0.01085,0.200857 -0.01085,0.296106 h -3.619418 c 0,0.539749 0.381209,1.111044 1.005623,1.111044 0.560914,0 0.910291,-0.370335 0.920874,-0.709001 h 1.619023 c -0.275167,1.227663 -1.270127,1.841748 -2.508374,1.841748 -1.608662,0 -2.719732,-0.952815 -2.719732,-2.434477 0,-1.460495 1.153404,-2.444295 2.719731,-2.444295 z m 6.614583,0 c 1.248831,0 1.757,0.857006 1.757,2.127002 v 2.645833 h -1.5875 v -2.645833 c 0,-0.550331 -0.211587,-0.84646 -0.709001,-0.84646 -0.497417,0 -0.889352,0.528755 -0.889352,1.163753 v 2.32854 h -1.586984 v -4.667415 h 1.586984 v 0.571541 c 0.3175,-0.402165 0.815023,-0.676961 1.428853,-0.676961 z m 11.43031,0 c 0.592666,0 1.185087,0.168963 1.597837,0.676961 v -0.560689 h 1.5875 v 4.656563 h -1.5875 v -0.560689 c -0.3175,0.476249 -1.005171,0.666626 -1.597837,0.666626 -1.322912,0 -2.318205,-1.143314 -2.318205,-2.434477 0,-1.291162 0.995293,-2.444295 2.318205,-2.444295 z M 16.62688,30.439496 c -0.994831,0 -1.047999,0.867647 -1.047999,0.867647 h 2.085144 c 0,0 -0.07408,-0.867647 -1.037145,-0.867647 z m -6.455939,0.253732 c -0.6349972,0 -1.1110408,0.550438 -1.1110408,1.16427 0,0.624414 0.4760436,1.174605 1.1110408,1.174605 0.635,0 1.111043,-0.550191 1.111043,-1.174605 0,-0.613832 -0.476043,-1.16427 -1.111043,-1.16427 z m -6.508644,0.01085 c -0.635,0 -1.1115622,0.549922 -1.1115622,1.163753 0,0.613831 0.4765622,1.16427 1.1115622,1.16427 0.6349868,0 1.111041,-0.550439 1.111041,-1.16427 0,-0.613831 -0.4760542,-1.163753 -1.111041,-1.163753 z m 24.955582,0 c -0.634998,0 -1.11156,0.549922 -1.11156,1.163753 0,0.613831 0.476562,1.16427 1.11156,1.16427 0.634997,0 1.111043,-0.550439 1.111043,-1.16427 0,-0.613831 -0.476046,-1.163753 -1.111043,-1.163753 z m 6.508646,0 c -0.635,0 -1.111562,0.549922 -1.111562,1.163753 0,0.613831 0.476562,1.16427 1.111562,1.16427 0.634998,0 1.111044,-0.550439 1.111044,-1.16427 0,-0.613831 -0.476046,-1.163753 -1.111044,-1.163753 z"
         style="color:#000000;-inkscape-font-specification:'Glacial Indifference';fill:#ff8100;stroke-width:2.10989;-inkscape-stroke:none"
         id="path37065" />
      <path
         d="M 49.67446,25.510518 V 36.093335 H 75.829451 V 25.510518 Z m 12.411128,1.492415 h 1.576649 v 1.77767 h 0.846976 v 1.227832 h -0.846976 v 3.439583 h -1.576649 v -3.439583 h -0.846977 v -1.227832 h 0.846977 z m -9.356019,1.67225 c 1.248831,0 1.757,0.857006 1.757,2.127002 v 2.645833 h -1.5875 v -2.645833 c 0,-0.550331 -0.211585,-0.84646 -0.709001,-0.84646 -0.497414,0 -0.888834,0.528755 -0.888834,1.163753 v 2.32854 h -1.5875 v -4.667415 h 1.5875 v 0.571541 c 0.317498,-0.402165 0.814504,-0.676961 1.428335,-0.676961 z m 15.08125,0 c 1.418164,0 2.593126,0.84663 2.593126,2.338875 0,0.09525 -0.01085,0.200857 -0.01085,0.296106 h -3.619418 c 0,0.539749 0.381209,1.111044 1.005623,1.111044 0.560917,0 0.910291,-0.370335 0.920874,-0.709001 h 1.619023 c -0.275164,1.227663 -1.270127,1.841748 -2.508375,1.841748 -1.608661,0 -2.719728,-0.952815 -2.719728,-2.434477 0,-1.460495 1.1534,-2.444295 2.719728,-2.444295 z m 5.651852,0 c 1.227664,0 2.126877,0.455025 2.26446,1.523938 h -1.555459 c -0.05292,-0.423332 -0.44446,-0.540018 -0.751374,-0.540018 -0.306917,-1e-6 -0.635103,0.158917 -0.635103,0.434081 0,0.656165 3.01635,-0.01047 3.01635,1.95802 0,1.100664 -0.942353,1.502751 -2.297014,1.502751 -1.386414,0 -2.434045,-0.518836 -2.518712,-1.841748 h 1.577165 c 0,0.698498 0.624335,0.74104 0.973585,0.74104 0.359833,0 0.666626,-0.137708 0.666626,-0.391707 0,-0.984247 -3.016353,-0.211466 -3.016353,-1.904794 0,-0.952497 0.730668,-1.481563 2.275829,-1.481563 z m -15.46262,0.01033 c 1.449911,0 2.656683,0.973465 2.656683,2.43396 0,1.492246 -1.175022,2.423625 -2.656683,2.423625 -1.492248,0 -2.667022,-0.931379 -2.667022,-2.423625 0,-1.460495 1.206524,-2.43396 2.667022,-2.43396 z m 9.842809,1.005624 c -0.994831,0 -1.047999,0.867647 -1.047999,0.867647 h 2.085145 c 0,0 -0.07407,-0.867647 -1.037146,-0.867647 z m -9.842809,0.232544 c -0.836081,0 -1.089856,0.624563 -1.089856,1.206644 0,0.592665 0.232608,1.21698 1.089856,1.21698 0.846664,0 1.079518,-0.624315 1.079518,-1.21698 0,-0.582081 -0.254021,-1.206644 -1.079518,-1.206644 z"
         style="color:#000000;-inkscape-font-specification:'Glacial Indifference';fill:#ff8100;stroke-width:2.10989;-inkscape-stroke:none"
         id="path37181" />
      <path
         d="m 82.868682,25.884696 v 10.582816 h 34.749298 c -1.26775,-0.0027 -2.64839,-0.637485 -2.72231,-2.052588 h 1.5875 c 0.11641,0.550332 0.55033,0.878499 1.05833,0.878499 0.6985,0 1.19579,-0.634981 1.19579,-1.301729 v -0.74104 c -0.31749,0.486832 -1.00517,0.677478 -1.59783,0.677478 -1.32291,0 -2.31769,-1.153649 -2.31769,-2.444812 0,-1.291162 0.99478,-2.43396 2.31769,-2.43396 0.59266,0 1.14275,0.147797 1.59783,0.676961 V 29.15478 h 1.5875 v 4.656563 c 0,1.532564 -1.21383,2.653228 -2.69285,2.656169 h 14.43167 V 25.884696 Z m 2.901632,3.164664 c 0.592664,0 1.121958,0.264069 1.450041,0.793233 0.455083,-0.582081 0.973524,-0.793233 1.703771,-0.793233 1.217081,0 1.799376,0.984068 1.799373,2.190564 v 2.582271 h -1.5875 v -2.582271 c 3e-6,-0.455082 -0.148312,-0.910022 -0.677476,-0.910022 -0.613831,0 -0.857313,0.592215 -0.857313,1.121379 v 2.370914 h -1.5875 v -2.582271 c 0,-0.455082 -0.147797,-0.910022 -0.676961,-0.910022 -0.539747,0 -0.857311,0.698088 -0.857311,1.163753 v 2.32854 h -1.5875 V 29.15478 h 1.5875 v 0.571541 c 0.317498,-0.402165 0.772295,-0.676961 1.290876,-0.676961 z m 8.519893,0 c 1.418164,0 2.592607,0.84663 2.592607,2.338875 0,0.09525 -0.01034,0.200857 -0.01034,0.296106 h -3.619418 c 0,0.539749 0.380693,1.111044 1.005107,1.111044 0.560914,0 0.910291,-0.370335 0.920875,-0.709001 h 1.619022 c -0.275167,1.227663 -1.269611,1.841748 -2.507858,1.841748 -1.608662,0 -2.720248,-0.952815 -2.720248,-2.434477 0,-1.460495 1.153919,-2.444295 2.720248,-2.444295 z m 5.651336,0 c 1.227657,0 2.127397,0.455025 2.264977,1.523938 h -1.55598 c -0.0529,-0.423332 -0.44446,-0.540018 -0.751373,-0.540018 -0.306914,-1e-6 -0.635103,0.158917 -0.635103,0.434081 0,0.656165 3.016356,-0.01047 3.016356,1.95802 0,1.100664 -0.94184,1.502751 -2.296504,1.502751 -1.386401,0 -2.434042,-0.518836 -2.518709,-1.841748 h 1.57665 c 0,0.698498 0.624334,0.74104 0.973583,0.74104 0.35983,0 0.66663,-0.137708 0.66663,-0.391707 0,-0.984247 -3.01584,-0.211466 -3.01584,-1.904794 0,-0.952497 0.730152,-1.481563 2.275313,-1.481563 z m 5.344377,0 c 1.22766,0 2.1274,0.455025 2.26498,1.523938 h -1.55598 c -0.0529,-0.423332 -0.44446,-0.540018 -0.75138,-0.540018 -0.30691,-1e-6 -0.6351,0.158917 -0.6351,0.434081 0,0.656165 3.01635,-0.01047 3.01635,1.95802 0,1.100664 -0.94183,1.502751 -2.2965,1.502751 -1.38641,0 -2.43404,-0.518836 -2.51871,-1.841748 h 1.57665 c 0,0.698498 0.62485,0.74104 0.9741,0.74104 0.35983,0 0.66663,-0.137708 0.66663,-0.391707 0,-0.984247 -3.01635,-0.211466 -3.01635,-1.904794 0,-0.952497 0.73015,-1.481563 2.27531,-1.481563 z m 5.34489,0 c 0.59267,0 1.18509,0.168963 1.59784,0.676961 v -0.560689 h 1.5875 v 4.656563 h -1.5875 v -0.560689 c -0.3175,0.476249 -1.00517,0.666626 -1.59784,0.666626 -1.32291,0 -2.3182,-1.143314 -2.3182,-2.434477 0,-1.291162 0.99529,-2.444295 2.3182,-2.444295 z m 13.41933,0 c 1.41816,0 2.59313,0.84663 2.59313,2.338875 0,0.09525 -0.0108,0.200857 -0.0108,0.296106 h -3.61942 c 0,0.539749 0.38121,1.111044 1.00562,1.111044 0.56092,0 0.90977,-0.370335 0.92036,-0.709001 h 1.61954 c -0.27517,1.227663 -1.27013,1.841748 -2.50838,1.841748 -1.60866,0 -2.71973,-0.952815 -2.71973,-2.434477 0,-1.460495 1.15341,-2.444295 2.71973,-2.444295 z m 5.65134,0 c 1.22766,0 2.12739,0.455025 2.26498,1.523938 h -1.55547 c -0.0529,-0.423332 -0.44497,-0.540018 -0.75189,-0.540018 -0.30691,-1e-6 -0.63458,0.158917 -0.63458,0.434081 0,0.656165 3.01583,-0.01047 3.01583,1.95802 0,1.100664 -0.94184,1.502751 -2.2965,1.502751 -1.38641,0 -2.43404,-0.518836 -2.51871,-1.841748 h 1.57717 c 0,0.698498 0.62433,0.74104 0.97358,0.74104 0.35983,0 0.66663,-0.137708 0.66663,-0.391707 0,-0.984247 -3.01635,-0.211466 -3.01635,-1.904794 0,-0.952497 0.73015,-1.481563 2.27531,-1.481563 z m -35.37975,1.015959 c -0.994828,0 -1.047481,0.867647 -1.047481,0.867647 h 2.084629 c 0,0 -0.07407,-0.867647 -1.037148,-0.867647 z m 29.76045,0 c -0.99483,0 -1.04799,0.867647 -1.04799,0.867647 h 2.08514 c 0,0 -0.0741,-0.867647 -1.03715,-0.867647 z m -6.45593,0.253732 c -0.635,0 -1.11156,0.550438 -1.11156,1.16427 0,0.624414 0.47656,1.174605 1.11156,1.174605 0.635,0 1.11104,-0.550191 1.11104,-1.174605 0,-0.613832 -0.47604,-1.16427 -1.11104,-1.16427 z m -6.50865,0.01085 c -0.63499,0 -1.11156,0.549922 -1.11156,1.163753 0,0.613831 0.47657,1.16427 1.11156,1.16427 0.635,0 1.11105,-0.550439 1.11105,-1.16427 0,-0.613831 -0.47605,-1.163753 -1.11105,-1.163753 z"
         style="color:#000000;-inkscape-font-specification:'Glacial Indifference';fill:#ff8100;stroke-width:2.10989;-inkscape-stroke:none"
         id="path37297" />
      <path
         d="m -0.1525684,48.445269 v 12.608014 l 37.7838284,0 V 48.445269 Z m 5.0669247,1.231447 h 1.5875 v 7.9375 h -1.5875 v -0.561205 c -0.317499,0.476247 -1.005687,0.666626 -1.598352,0.666626 -1.322913,0 -2.31768803,-1.142797 -2.31768803,-2.433961 0,-1.291161 0.99477503,-2.444811 2.31768803,-2.444811 0.592665,0 1.185603,0.169479 1.598352,0.677479 z M 25.953899,50.41724 c 0.508,0 0.931208,0.413144 0.931208,0.931727 0,0.507998 -0.423208,0.931209 -0.931208,0.931209 -0.518581,0 -0.93121,-0.423211 -0.93121,-0.931209 0,-0.518583 0.412629,-0.931727 0.93121,-0.931727 z M 10.22721,52.840865 c 1.418162,0 2.592607,0.84663 2.592607,2.338875 0,0.09525 -0.01033,0.201374 -0.01033,0.296624 H 9.1900643 c 0,0.539747 0.380692,1.111041 1.0051057,1.111041 0.560916,0 0.910291,-0.370335 0.920875,-0.708999 h 1.619539 c -0.275166,1.227662 -1.270128,1.841231 -2.508374,1.841231 -1.6086617,0 -2.7202477,-0.952299 -2.7202477,-2.433961 0,-1.460494 1.15392,-2.444811 2.7202477,-2.444811 z m 20.658688,0 c 0.137581,0 0.34894,0.04244 0.475938,0.105937 v 1.439188 h -0.02119 c -0.15875,-0.1905 -0.39169,-0.264584 -0.635104,-0.264584 -0.592666,0 -1.047482,0.603356 -1.047482,1.16427 v 2.32854 h -1.5875 v -4.667414 h 1.5875 v 0.571542 c 0.243416,-0.34925 0.64575,-0.677479 1.227833,-0.677479 z m 3.270083,0 c 1.227664,0 2.127396,0.455026 2.264979,1.523937 h -1.555977 c -0.05292,-0.423331 -0.444461,-0.539501 -0.751377,-0.539501 -0.306904,0 -0.635104,0.158916 -0.635104,0.434083 0,0.656164 3.016354,-0.01098 3.016354,1.957501 2e-6,1.100664 -0.941838,1.502752 -2.296499,1.502752 -1.386414,0 -2.434042,-0.518319 -2.518709,-1.841231 h 1.576647 c 0,0.698498 0.624334,0.74104 0.973584,0.74104 0.359831,0 0.666626,-0.137708 0.666626,-0.391708 0,-0.984247 -3.015837,-0.211981 -3.015837,-1.905309 0,-0.952497 0.730152,-1.481564 2.275313,-1.481564 z m -12.710851,0.01085 c 1.449912,0 2.656685,0.973466 2.656685,2.433961 0,1.492244 -1.175023,2.423625 -2.656685,2.423625 -1.492245,0 -2.666504,-0.931381 -2.666504,-2.423625 0,-1.460495 1.206009,-2.433961 2.666504,-2.433961 z m -8.36073,0.09509 h 1.598352 l 1.111043,3.333647 1.11156,-3.333647 h 1.608688 l -1.778186,4.667414 h -1.873271 z m 12.075749,0 h 1.5875 v 4.667414 h -1.5875 z M 10.258732,53.85682 c -0.9948297,0 -1.0474807,0.868164 -1.0474807,0.868164 h 2.0846277 c 0,0 -0.07407,-0.868164 -1.037147,-0.868164 z m 11.186398,0.233061 c -0.836081,0 -1.089856,0.624565 -1.089856,1.206646 0,0.592664 0.232609,1.21698 1.089856,1.21698 0.846664,0 1.079521,-0.624316 1.079521,-1.21698 0,-0.582081 -0.254024,-1.206646 -1.079521,-1.206646 z m -17.6418167,0.03154 c -0.634998,0 -1.111561,0.550439 -1.111561,1.164269 0,0.613834 0.476563,1.16427 1.111561,1.16427 0.634998,0 1.111043,-0.550436 1.111043,-1.16427 0,-0.61383 -0.476045,-1.164269 -1.111043,-1.164269 z"
         style="font-size:10.5833px;line-height:1.25;font-family:'Glacial Indifference';-inkscape-font-specification:'Glacial Indifference';fill:#ff8100;fill-opacity:1;stroke:none;stroke-width:2.3126"
         id="path37677"
         sodipodi:nodetypes="ccccccccccsssccsssssssccsccsssscccsscccccsssccssssccssssssssscccccccccccccsccsssssssssss" />
      <path
         d="m 176.02232,46.761471 v 12.608014 l 49.04088,0 V 46.761471 Z m 7.60835,1.231447 h 1.5875 v 3.841628 c 0.41274,-0.508 0.99458,-0.677479 1.59783,-0.677479 1.32292,0 2.31821,1.15365 2.31821,2.444811 0,1.291164 -0.99529,2.433961 -2.31821,2.433961 -0.60325,0 -1.28034,-0.190379 -1.59783,-0.666626 v 0.561205 h -1.5875 z m -4.45555,3.164149 c 0.59267,0 1.18509,0.169479 1.59784,0.677479 v -0.560692 h 1.5875 v 4.656564 h -1.5875 v -0.561205 c -0.3175,0.476247 -1.00517,0.666626 -1.59784,0.666626 -1.3229,0 -2.31768,-1.142797 -2.31768,-2.433961 0,-1.291161 0.99478,-2.444811 2.31768,-2.444811 z m 13.0173,0 c 1.22766,0 2.12739,0.455026 2.26498,1.523937 h -1.55598 c -0.0529,-0.423331 -0.44446,-0.539501 -0.75138,-0.539501 -0.30691,0 -0.63458,0.158916 -0.63458,0.434083 0,0.656164 3.01583,-0.01098 3.01583,1.957501 0,1.100664 -0.94184,1.502752 -2.2965,1.502752 -1.38641,0 -2.43404,-0.518319 -2.51871,-1.841231 h 1.57665 c 0,0.698498 0.62485,0.74104 0.9741,0.74104 0.35983,0 0.66663,-0.137708 0.66663,-0.391708 0,-0.984247 -3.01636,-0.211981 -3.01636,-1.905309 0,-0.952497 0.73016,-1.481564 2.27532,-1.481564 z m 5.7892,0 c 1.41817,0 2.59261,0.84663 2.59261,2.338875 0,0.09525 -0.0103,0.201374 -0.0103,0.296624 h -3.61941 c 0,0.539747 0.3807,1.111041 1.00511,1.111041 0.56091,0 0.91029,-0.370335 0.92087,-0.708999 h 1.61954 c -0.27516,1.227662 -1.27012,1.841231 -2.50837,1.841231 -1.60865,0 -2.72025,-0.952299 -2.72025,-2.433961 0,-1.460494 1.15393,-2.444811 2.72025,-2.444811 z m 6.61459,0 c 1.24883,0 1.75648,0.857523 1.75648,2.127518 v 2.645833 h -1.5875 v -2.645833 c 0,-0.550331 -0.21159,-0.846977 -0.709,-0.846977 -0.49741,0 -0.88884,0.529273 -0.88884,1.16427 v 2.32854 h -1.5875 v -4.667414 h 1.5875 v 0.571542 c 0.3175,-0.402166 0.81504,-0.677479 1.42886,-0.677479 z m 5.19606,0 c 1.51342,0 2.47667,0.899711 2.55075,1.979208 h -1.57716 c -0.0212,-0.455083 -0.37003,-0.74104 -0.92036,-0.74104 -0.71966,0 -0.9524,0.68833 -0.9524,1.217496 0,0.539748 0.21157,1.216981 0.9524,1.216981 0.48683,0 0.86744,-0.211773 0.92036,-0.635104 h 1.54564 c -0.15875,1.037162 -1.10106,1.841231 -2.51923,1.841231 -1.61924,0 -2.5926,-1.100463 -2.5926,-2.433961 0,-1.333494 1.03686,-2.444811 2.5926,-2.444811 z m 5.96915,0 c 1.41816,0 2.59312,0.84663 2.59312,2.338875 0,0.09525 -0.0109,0.201374 -0.0109,0.296624 h -3.61942 c 0,0.539747 0.38121,1.111041 1.00563,1.111041 0.56091,0 0.90977,-0.370335 0.92035,-0.708999 h 1.61954 c -0.27516,1.227662 -1.27012,1.841231 -2.50837,1.841231 -1.60866,0 -2.71973,-0.952299 -2.71973,-2.433961 0,-1.460494 1.1534,-2.444811 2.71973,-2.444811 z m 5.65133,0 c 1.22766,0 2.1274,0.455026 2.26498,1.523937 h -1.55598 c -0.0529,-0.423331 -0.44446,-0.539501 -0.75137,-0.539501 -0.30692,0 -0.63458,0.158916 -0.63459,0.434083 0,0.656164 3.01584,-0.01098 3.01584,1.957501 0,1.100664 -0.94185,1.502752 -2.2965,1.502752 -1.38642,0 -2.43405,-0.518319 -2.51871,-1.841231 h 1.57665 c 0,0.698498 0.62485,0.74104 0.9741,0.74104 0.35983,0 0.66662,-0.137708 0.66662,-0.391708 0,-0.984247 -3.01635,-0.211981 -3.01635,-1.905309 0,-0.952497 0.73015,-1.481564 2.27531,-1.481564 z m -23.3996,1.015955 c -0.99483,0 -1.04748,0.868164 -1.04748,0.868164 h 2.08462 c 0,0 -0.0741,-0.868164 -1.03714,-0.868164 z m 17.77979,0 c -0.99483,0 -1.04748,0.868164 -1.04748,0.868164 h 2.08463 c 0,0 -0.0741,-0.868164 -1.03715,-0.868164 z m -36.13102,0.2646 c -0.635,0 -1.11105,0.550439 -1.11105,1.164269 0,0.613834 0.47605,1.16427 1.11105,1.16427 0.63499,0 1.11104,-0.550436 1.11104,-1.16427 0,-0.61383 -0.47605,-1.164269 -1.11104,-1.164269 z m 6.66729,0 c -0.635,0 -1.11104,0.550439 -1.11104,1.164269 0,0.613834 0.47604,1.16427 1.11104,1.16427 0.635,0 1.11156,-0.550436 1.11156,-1.16427 0,-0.61383 -0.47656,-1.164269 -1.11156,-1.164269 z"
         style="font-size:10.5833px;line-height:1.25;font-family:'Glacial Indifference';-inkscape-font-specification:'Glacial Indifference';fill:#ff8100;fill-opacity:1;stroke:none;stroke-width:2.3126"
         id="path38198"
         sodipodi:nodetypes="ccccccccsssccccsccccccssssccssssccsssscsccsccssccssccssscccccssccsssccsssssccsccsssssccssssccsssssccssccsssssssssss" />
    </g>
  </g>
</svg>
